<svg version="1.1" id="Layer_1" xmlns="http://www.w3.org/2000/svg" xmlns:xlink="http://www.w3.org/1999/xlink" x="0px" y="0px"
	 width="100%" viewBox="0 0 1024 1024" enable-background="new 0 0 1024 1024" xml:space="preserve">
<path fill="#000000" opacity="1.000000" stroke="none"
	d="
M271.770996,637.102661
	C277.082428,610.835571 282.339050,584.997253 287.605804,559.161072
	C292.210266,536.573792 296.777618,513.978638 301.487030,491.413239
	C302.226074,487.872131 301.559692,485.622864 298.303040,483.590637
	C289.261841,477.948792 280.426788,471.998657 272.253021,465.084381
	C262.037903,456.443390 253.941742,446.252014 248.265137,434.137207
	C247.770889,433.082428 247.274185,432.023682 246.695175,431.014618
	C243.034149,424.634277 242.744843,424.506317 236.504333,428.133118
	C233.826355,429.689423 231.102722,430.404175 227.980713,430.390167
	C209.482635,430.307007 190.983551,430.298828 172.485733,430.414795
	C167.735809,430.444580 163.765656,429.424530 162.113998,424.503387
	C160.411575,419.431030 162.690292,415.956940 166.941391,413.178040
	C171.953033,409.902008 176.775452,406.333466 181.638092,402.833618
	C184.411072,400.837738 184.986008,398.716431 182.415741,395.849701
	C168.026505,379.800751 165.814682,348.189026 179.763397,330.274139
	C181.774506,327.691223 181.451981,325.656158 179.665909,323.152283
	C175.240555,316.948395 168.688599,312.974854 163.614548,307.467651
	C161.163330,304.807190 157.453445,302.319275 159.209427,298.219330
	C160.930054,294.201996 165.214783,293.970154 169.146744,293.965698
	C180.645798,293.952667 192.145050,293.993988 203.643814,293.934235
	C208.742767,293.907715 209.622818,292.872650 208.446915,287.928650
	C205.169327,274.148224 195.945114,265.597534 183.514236,259.897522
	C181.044434,258.765045 177.207291,258.606812 177.072067,255.217606
	C176.930923,251.680435 180.895233,251.582108 183.267426,250.347534
	C198.610458,242.362488 209.251602,231.249451 209.029053,212.620575
	C209.001526,210.315201 209.481308,207.978241 209.943878,205.700134
	C210.360031,203.650558 211.456680,201.667786 213.686340,201.530731
	C216.253723,201.372910 216.832764,203.789505 217.165955,205.696106
	C217.850204,209.611679 218.059967,213.609848 218.736526,217.527145
	C221.462387,233.309860 231.798889,242.779510 245.380005,249.634140
	C248.062149,250.987885 252.718124,250.900452 252.787003,254.559311
	C252.862534,258.572601 248.129211,258.705750 245.256378,259.959930
	C232.519623,265.520416 223.073715,273.884521 219.791061,288.027832
	C218.871658,291.988953 219.474014,294.157562 224.108002,293.975250
	C230.942566,293.706421 237.795258,293.533386 243.961990,297.381775
	C244.614166,297.788757 245.578445,297.832428 246.394455,297.819855
	C261.871033,297.580475 277.345093,298.516449 292.834473,297.213470
	C301.439728,296.489563 310.151520,296.985657 318.814941,297.021301
	C322.613922,297.036926 325.387238,300.027313 329.520264,301.239594
	C330.225281,295.458435 330.043152,290.096649 329.614349,284.006409
	C327.391724,285.274323 325.597290,286.299500 323.801361,287.322144
	C318.672699,290.242615 313.374908,291.491302 307.525055,289.518433
	C304.539215,288.511475 301.438538,288.420013 298.194000,288.687347
	C283.910553,289.864105 269.549561,277.286194 266.834930,261.246216
	C264.239960,245.913467 265.666687,230.751892 269.999084,215.918060
	C272.415588,207.644150 276.919067,199.618637 285.463776,197.564682
	C294.705444,195.343201 302.838226,191.876266 310.508942,186.548309
	C313.108612,184.742645 316.512939,184.722672 319.722137,184.842926
	C324.063965,185.005630 327.660767,183.185760 330.113434,179.831940
	C341.109314,164.796036 355.263977,160.476288 372.751007,166.724625
	C373.993561,167.168594 375.331268,167.359695 376.636932,167.602890
	C376.912659,167.654282 377.241913,167.418320 377.617340,167.290665
	C378.471710,165.263214 376.937469,163.893875 376.159180,162.335266
	C374.966644,159.947006 373.802734,157.577011 373.708801,154.816391
	C373.528259,149.510300 376.024567,147.434631 381.186371,148.975204
	C388.053894,151.024857 394.946777,152.952133 402.003021,154.220047
	C404.755280,154.714584 407.538757,155.507919 410.733551,154.410873
	C409.948700,151.566101 407.726410,149.728928 406.236572,147.476562
	C402.163788,141.319244 398.333466,135.113632 398.657562,127.290863
	C398.895203,121.554901 401.052124,119.751114 406.594513,121.096153
	C414.011292,122.896095 421.218262,125.427490 428.789154,126.748680
	C441.001312,128.879807 452.999634,127.347794 464.914978,125.125381
	C489.076050,120.618904 513.274048,116.019295 537.901123,115.888702
	C572.225037,115.706688 605.227600,122.690010 636.693848,136.640976
	C651.046875,143.004578 664.826660,150.378769 677.916565,159.048721
	C679.432007,160.052460 681.067078,160.875610 683.316711,162.167160
	C683.250488,153.840012 680.605774,146.598236 678.848022,139.208679
	C678.002258,135.653198 677.018494,132.129837 676.058655,128.602432
	C675.541992,126.703682 675.551819,124.947372 677.237610,123.612602
	C678.922302,122.278664 680.637146,122.755936 682.393982,123.564613
	C692.086853,128.026337 698.317383,135.911819 703.496155,144.838989
	C707.947998,152.513260 711.009644,160.767746 713.666626,170.419601
	C715.352783,166.683975 716.505310,163.852905 717.890503,161.140701
	C719.251404,158.476242 720.659973,155.797104 722.397522,153.375443
	C723.998230,151.144562 725.677246,148.129364 729.005615,148.960999
	C732.734131,149.892593 733.884033,153.345093 734.199646,156.747360
	C734.709351,162.241455 734.175903,167.711334 732.798157,173.070557
	C732.543396,174.061417 732.292358,174.993866 732.848328,175.930771
	C737.278137,175.930771 741.685669,175.924698 746.093201,175.932358
	C751.127625,175.941116 756.066650,176.698654 760.819763,178.308090
	C765.999634,180.062027 766.651794,183.437485 762.563049,187.151581
	C758.812317,190.558640 753.957336,192.169159 749.676758,194.721344
	C749.126343,195.049530 748.612183,195.438614 747.430176,196.242111
	C754.808105,200.324265 760.792603,205.455399 766.152405,211.350357
	C779.490845,226.020691 786.018555,243.847229 790.205017,262.785614
	C792.223755,271.918243 794.181152,281.029297 801.384338,287.933777
	C803.941956,290.385406 803.137146,293.482941 800.523132,295.304901
	C794.549194,299.468628 792.381653,305.186279 791.407410,312.184265
	C787.378540,341.123138 774.593994,366.689117 760.240784,391.654938
	C749.437500,410.445862 735.687805,427.332489 725.299194,446.377594
	C722.126221,452.194305 719.473938,458.209717 716.734131,464.981354
	C726.714722,466.994507 728.520569,474.228485 729.545105,482.240509
	C730.156067,487.018188 731.752502,491.627533 733.859009,495.998260
	C736.983643,502.481262 739.890503,509.010223 739.360291,516.470215
	C739.210999,518.569275 740.589783,519.811707 741.938843,521.076782
	C776.102905,553.113281 794.862305,593.176086 803.046326,638.690308
	C806.349609,657.060974 807.736938,675.596924 807.539246,694.282349
	C807.490662,698.877380 806.201050,700.492554 801.576599,700.366943
	C793.714417,700.153381 792.710754,699.810974 792.784973,694.282166
	C793.051147,674.446899 791.821777,654.742371 787.645569,635.311157
	C779.238892,596.195862 762.854919,561.292053 733.487549,533.279480
	C731.318237,531.210266 729.697876,529.550110 726.426758,532.064026
	C701.950256,550.874207 675.097778,566.106018 649.294006,582.919861
	C623.315308,599.847595 597.659119,617.189148 574.397888,637.828735
	C568.179138,643.346558 559.065002,642.543091 551.705872,635.974060
	C544.085876,629.172180 537.832092,621.133545 531.878601,612.892700
	C526.811096,605.878235 522.447632,598.358215 516.594482,591.907227
	C515.234619,590.408386 514.018494,588.583801 515.293457,586.497498
	C516.671021,584.243347 518.896729,582.989746 521.510986,582.813721
	C526.721375,582.462769 530.361023,585.271179 533.234253,589.210693
	C539.905701,598.358032 546.284119,607.712769 553.448547,616.504944
	C562.755371,627.926208 562.931946,628.323730 573.887329,619.155273
	C610.838440,588.231201 652.282654,563.936340 692.633179,538.014526
	C702.581055,531.623901 712.455322,525.106384 721.301331,517.165039
	C724.324402,514.451111 725.006897,511.886597 723.177490,508.005280
	C719.204102,499.575104 715.762756,490.939819 714.469910,481.542633
	C713.798523,476.662354 711.432434,475.810028 707.160828,478.289642
	C694.878540,485.419373 684.234131,494.881958 672.529846,502.816254
	C633.367188,529.364502 591.814209,551.414856 547.550354,568.252747
	C539.308899,571.387756 531.144714,574.755066 522.792603,577.562195
	C514.300659,580.416260 508.394806,585.934387 503.415283,593.201538
	C482.982300,623.021423 468.237488,655.441711 458.170441,690.083435
	C455.309570,699.928040 451.635468,701.649536 440.829651,698.110474
	C445.647095,679.314575 451.988953,660.989319 459.244873,642.580688
	C448.785583,638.126099 438.569824,633.772827 428.351990,629.424438
	C424.059845,627.597839 419.782806,625.733643 415.462494,623.975952
	C412.120453,622.616272 409.371429,620.665283 407.527191,617.452637
	C406.228058,615.189392 404.223480,613.762207 401.470215,613.574219
	C399.604736,614.954590 400.122864,616.917542 400.389130,618.622192
	C404.133423,642.592163 407.950378,666.550842 411.744049,690.513123
	C411.926086,691.663086 411.961914,692.843445 412.227936,693.971436
	C413.161102,697.928406 411.657562,699.476624 407.608551,699.309814
	C398.148499,698.920105 396.685974,701.282776 395.355072,689.479614
	C392.865845,667.404297 389.626770,645.413269 386.674713,623.390503
	C384.140839,604.487732 381.442688,585.605957 379.063202,566.683960
	C377.407166,553.514709 376.318237,540.274597 374.698792,527.100281
	C373.132782,514.360596 372.191498,501.584320 372.855438,488.783081
	C373.303833,480.138397 373.585968,471.505157 373.798401,462.854431
	C374.070221,451.786743 370.366669,442.000000 362.255493,435.159027
	C347.008972,422.300110 342.468262,405.836212 342.957428,387.011230
	C343.052612,383.347351 342.940948,379.678528 342.981476,376.012604
	C343.020233,372.507172 342.422729,369.276123 338.974854,367.491333
	C335.067444,365.468658 331.114380,365.750885 327.643555,368.344482
	C322.239990,372.382385 318.524536,377.712799 317.740448,384.527893
	C316.103271,398.757263 316.795502,412.807190 321.794952,426.428223
	C322.359100,427.965179 322.871185,429.654144 322.824860,431.255798
	C322.712799,435.131256 319.502563,436.819366 316.180237,434.865082
	C315.195221,434.285706 314.198242,433.503265 313.574921,432.568359
	C309.284119,426.133026 303.244202,424.753845 295.854675,425.187561
	C286.221619,425.752899 276.530609,425.289307 266.865234,425.360992
	C260.974335,425.404694 260.007874,427.090851 262.891785,432.349426
	C270.893036,446.938965 283.348328,457.160675 296.671021,466.492279
	C300.762512,469.358124 304.841400,472.285492 309.168640,474.760620
	C315.141693,478.177124 316.576538,482.810272 315.251007,489.458862
	C309.033813,520.642822 303.277740,551.918579 297.119720,583.114685
	C289.875824,619.811462 283.765381,656.707397 277.291626,693.540222
	C276.419861,698.500366 266.797302,701.808838 262.889648,698.584595
	C261.489105,697.429016 261.932281,695.942200 262.190521,694.437012
	C265.358887,675.970276 268.493805,657.497864 271.628296,639.025391
	C271.711243,638.536560 271.692108,638.030518 271.770996,637.102661
M530.784973,265.303284
	C527.712402,255.928955 529.812195,246.418930 530.785950,236.955643
	C529.567810,236.822571 529.040344,236.616318 528.616150,236.746490
	C527.346069,237.136230 526.115417,237.655060 524.871033,238.127899
	C506.217499,245.215912 486.838440,247.058151 467.045929,246.514069
	C452.710571,246.119965 438.507721,244.774002 424.415405,242.187103
	C422.241455,241.788010 420.684113,242.043472 419.498260,244.283768
	C412.491943,257.519897 407.737244,271.457794 406.294189,286.405182
	C405.225189,297.478027 410.035736,307.200256 413.779694,317.147675
	C416.697632,324.900543 418.512665,332.776154 416.097992,341.045074
	C412.562500,353.152405 404.530396,361.819885 394.617310,369.038025
	C390.317657,372.168732 385.671082,374.833893 382.047943,378.855316
	C374.233521,387.528870 376.920593,397.441803 388.001892,401.017212
	C395.647583,403.484100 403.511810,403.365997 411.286346,402.731171
	C419.647675,402.048431 427.911987,400.588074 432.610962,392.030243
	C433.941162,389.607605 435.970001,390.411163 437.331390,392.496552
	C438.984741,395.029144 439.367737,397.736633 438.231873,400.596771
	C436.359680,405.311249 433.069519,408.687012 428.521759,410.870117
	C422.098450,413.953583 415.179474,414.814087 408.197906,415.416077
	C402.632690,415.895996 403.969971,420.615540 403.430725,423.820770
	C402.838531,427.340790 405.695587,427.802673 408.377899,427.673370
	C411.696899,427.513428 415.003967,427.121674 418.320831,426.899048
	C434.408813,425.819122 449.907288,422.170349 464.729095,415.872223
	C472.163239,412.713257 472.056824,412.490143 469.625000,404.999481
	C469.501709,404.619690 469.809235,404.100037 469.906708,403.685699
	C481.233063,402.755798 491.147858,413.897461 488.630737,424.517578
	C485.732361,436.746307 478.883026,446.267059 468.712524,453.444061
	C453.897278,463.898743 437.497467,468.695892 419.293335,467.367645
	C413.573059,466.950256 411.881989,469.535706 413.491241,475.093536
	C414.332581,477.999390 416.281525,480.019440 418.967834,481.245758
	C422.320923,482.776428 425.835815,483.745361 429.578156,483.663086
	C433.513855,483.576538 437.319275,484.255615 441.218292,485.360321
	C440.282379,487.792633 438.258728,487.883392 436.617615,488.351288
	C432.140137,489.627869 427.662964,491.288696 423.084351,491.718781
	C418.569946,492.142853 417.628784,494.557556 417.344910,498.202576
	C416.544617,508.478241 423.027679,517.273376 434.213531,520.622131
	C443.558289,523.419800 453.231293,524.295837 462.896027,523.800110
	C496.045074,522.099792 527.703125,514.359619 557.554810,499.618286
	C559.211182,498.800385 560.820557,497.123016 563.011536,498.316101
	C563.752991,500.686707 561.879333,501.670227 560.712830,502.950836
	C551.753479,512.787109 541.097534,520.437683 529.596375,526.986572
	C523.935913,530.209717 523.942383,530.190002 527.283508,535.921509
	C529.967590,540.525879 532.653442,545.130066 535.268433,549.773804
	C538.782166,556.013611 538.741882,555.999878 545.427917,553.477539
	C580.009155,540.431885 612.498718,523.210388 644.015930,504.059875
	C657.107178,496.105347 669.294067,486.868011 682.113037,477.189911
	C670.004578,466.130219 667.281433,451.115662 663.917664,435.878815
	C652.324646,440.038055 641.168823,442.034363 629.801636,438.956390
	C627.997681,442.148132 626.420349,444.886719 624.892090,447.652405
	C619.914978,456.659790 613.251709,464.294617 605.537598,471.003235
	C602.628052,473.533539 599.499756,476.200562 595.127930,474.917480
	C594.549377,473.054077 595.538452,472.054443 596.435486,471.102692
	C603.574219,463.528320 609.092346,454.787598 614.231445,445.833832
	C617.021545,440.972656 620.654297,436.453339 621.667969,430.697998
	C622.492859,426.014343 625.349487,424.002411 629.798828,425.636536
	C642.103516,430.155853 653.841736,427.817657 664.241577,421.213623
	C688.416443,405.862152 699.852783,383.030426 697.634399,354.728882
	C695.520203,327.756683 668.074707,314.564667 645.516235,330.875458
	C635.560120,338.074188 627.131958,346.700989 621.624573,357.351624
	C616.591919,367.084076 609.066711,371.968018 599.205872,374.643768
	C595.831421,375.559387 592.516296,376.704803 589.123596,377.540192
	C579.103088,380.007538 572.200378,374.395477 571.946411,364.015717
	C571.670044,352.721527 571.060181,341.457977 569.039978,330.280518
	C566.228882,314.726532 556.709839,303.279663 546.671082,291.998688
	C539.874451,284.361084 534.281982,275.907104 530.784973,265.303284
M386.356903,488.862579
	C385.938843,500.181091 386.913452,511.409637 388.132385,522.656860
	C390.491425,544.424866 393.521454,566.095215 397.005554,587.703491
	C398.476868,596.828552 400.631256,598.807251 410.139496,600.937866
	C411.182007,599.773254 411.404297,598.310486 411.729034,596.836853
	C415.976044,577.564941 419.890015,558.204529 425.424469,539.251648
	C426.838074,534.410706 426.189819,531.851257 421.423065,529.565002
	C410.258087,524.210083 402.811707,510.916595 404.415436,496.205139
	C405.004303,490.803497 406.350677,485.153656 402.367889,480.032745
	C400.817871,478.039764 400.734375,475.093567 400.635468,472.369293
	C400.437958,466.927673 401.481903,461.795898 403.639343,456.847229
	C405.807922,451.872803 404.023743,447.065033 403.063416,442.213867
	C402.347382,438.596649 398.777924,439.007507 396.540375,437.552765
	C394.985474,436.541870 393.530853,435.474091 392.463379,433.940460
	C388.947601,428.889343 383.478241,427.677704 376.803955,431.086700
	C390.487030,448.226410 387.785217,468.178314 386.356903,488.862579
M435.402710,553.781433
	C430.265442,572.360291 425.689362,591.074219 421.445068,610.168762
	C435.081329,616.619080 448.588776,622.595459 462.348785,628.012451
	C464.216309,628.747620 465.553864,628.557983 466.523163,626.736938
	C469.541351,621.066467 472.562012,615.397278 476.092499,608.768616
	C471.438660,610.446228 468.375397,612.849792 464.542572,613.444397
	C455.153107,614.901184 449.213806,608.425354 451.861176,599.535767
	C453.332275,594.595886 454.358307,589.510925 456.039856,584.648621
	C461.926605,567.626953 462.378571,547.807922 480.601562,536.968811
	C468.371460,538.956116 456.422333,537.843506 444.517700,536.944092
	C441.486328,536.715088 440.196533,537.456787 439.431946,540.083374
	C438.177917,544.391418 436.867767,548.683044 435.402710,553.781433
M323.875458,249.913559
	C323.627838,253.949341 324.003265,257.890137 325.892761,261.541229
	C328.281891,266.157715 331.968689,267.430603 336.689331,265.376190
	C341.653503,263.215790 343.801025,258.949860 344.648071,254.038940
	C345.634033,248.322922 346.146606,242.525787 346.886230,236.766617
	C347.864227,229.150970 349.308716,221.637665 353.090332,214.843262
	C356.789459,208.197067 357.349274,208.107162 363.803040,211.386108
	C364.042267,211.507645 364.436005,211.324997 365.297913,211.215439
	C367.936920,201.871887 373.562897,194.030701 381.714874,186.994614
	C375.674438,183.945679 370.390228,182.772324 365.213623,181.226486
	C358.429840,179.200745 352.548706,180.647324 346.897461,184.685135
	C339.704681,189.824387 335.438324,197.085754 331.792358,204.781708
	C325.157227,218.787125 323.398163,233.716431 323.875458,249.913559
M506.680145,569.054688
	C511.536804,566.871826 516.376404,564.649658 521.258118,562.524353
	C523.354797,561.611511 524.744934,560.597107 523.352478,558.049316
	C519.135864,550.333862 514.673096,542.779114 509.371185,535.258301
	C500.357727,540.584473 491.293945,545.120605 483.429718,551.581909
	C481.924408,552.818665 480.509430,554.429749 479.666626,556.166199
	C473.414062,569.047729 470.300659,582.932251 466.101105,597.737488
	C472.787201,594.239807 477.943695,590.661987 483.057983,587.023315
	C484.905670,585.708801 484.729462,583.987671 483.871185,582.137329
	C482.610870,579.420166 481.382782,576.686157 480.222290,573.925110
	C478.183258,569.073853 479.128235,565.757751 483.256500,563.878174
	C487.690887,561.859314 489.101715,565.724609 490.868439,568.290955
	C492.814026,571.117065 494.314972,574.249146 496.136261,577.472107
	C500.003235,575.000061 502.228271,571.201355 506.680145,569.054688
M304.141052,212.690903
	C298.820679,226.441528 297.509521,240.784210 298.307770,255.331833
	C298.664307,261.829254 300.261017,268.165619 304.449860,273.489685
	C308.280792,278.358795 314.152557,278.368500 318.348846,273.366455
	C315.244049,269.682098 312.750854,265.610840 311.770874,260.751617
	C308.546509,244.763443 310.158569,229.066223 314.250977,213.438446
	C315.432190,208.927597 317.729004,204.573441 317.464783,198.980927
	C309.645386,200.556671 307.254852,206.501892 304.141052,212.690903
M450.223083,448.764160
	C460.515564,444.229309 469.113770,437.880127 473.934570,426.556580
	C465.103760,429.995422 456.807678,433.253937 448.136841,435.439270
	C439.279175,437.671661 430.246887,438.804749 421.237457,440.097504
	C418.597961,440.476288 415.803680,440.096405 416.240387,444.345673
	C417.078735,452.503418 417.713226,453.587097 422.790009,453.843719
	C432.076569,454.313049 440.970581,452.663818 450.223083,448.764160
M278.990265,249.442810
	C279.326355,259.011353 279.913177,268.470856 289.417084,274.087189
	C286.154541,263.535034 284.134735,252.998871 285.108124,241.857758
	C286.049042,231.087906 287.767151,220.474960 290.801422,209.008255
	C285.157410,212.136353 283.532654,216.471634 282.195129,220.898804
	C279.481354,229.881454 278.946686,239.146805 278.990265,249.442810
M195.548615,307.324005
	C192.044754,307.651123 188.401016,306.555267 184.808563,308.095734
	C188.358185,312.064545 220.718948,313.389984 226.995224,309.233429
	C216.356400,305.726166 206.302002,308.065216 195.548615,307.324005
M249.297394,312.418274
	C249.500275,315.175201 251.617569,314.783875 253.367706,314.799561
	C259.161316,314.851562 264.957672,314.919769 270.749054,314.796814
	C275.130676,314.703796 279.575562,315.412476 283.949554,314.270020
	C284.034882,311.371277 282.346100,310.383728 280.196930,310.460388
	C269.978302,310.824860 259.765167,311.344147 249.297394,312.418274
M298.572357,310.374268
	C297.738129,310.522980 296.821075,310.709412 296.937531,311.798676
	C297.120239,313.507385 298.492065,313.816620 299.857819,313.833832
	C304.157349,313.888092 308.462036,313.974548 312.756348,313.818237
	C314.889709,313.740601 317.345673,314.706879 319.207550,312.639526
	C316.883240,310.173615 316.883240,310.173615 298.572357,310.374268
z"/>
<path fill="#000000" opacity="1.000000" stroke="none"
	d="
M387.262207,773.602295
	C387.270721,790.022217 387.131165,806.023315 387.360565,822.019165
	C387.429474,826.825317 385.793274,828.445923 381.017700,828.326538
	C363.643402,827.891968 365.939819,830.570068 365.867981,813.174622
	C365.768127,789.009766 365.829956,764.844116 365.836853,740.678833
	C365.838745,734.015869 366.256531,734.341370 372.923370,733.525391
	C383.226868,732.264282 389.641449,736.004089 395.335968,744.818237
	C405.261566,760.181274 416.660431,774.592834 427.456177,789.392700
	C428.123993,790.308228 428.917328,791.132141 430.636871,793.159424
	C430.636871,789.321289 430.636993,786.769836 430.636871,784.218323
	C430.636139,769.385864 430.764099,754.551514 430.556519,739.721985
	C430.493805,735.241089 431.815399,733.555420 436.516052,733.579529
	C450.393158,733.650757 450.393402,733.472351 450.394043,747.545227
	C450.395172,772.377136 450.290894,797.209961 450.490570,822.040283
	C450.529510,826.882324 448.803009,827.958679 444.181274,828.441589
	C435.001770,829.400696 429.244507,826.145264 424.061829,818.379944
	C413.347473,802.326416 401.496918,787.030884 390.098022,771.435120
	C389.536499,770.666870 388.825623,770.007812 388.147125,769.256775
	C386.732483,770.531799 387.453522,771.946655 387.262207,773.602295
z"/>
<path fill="#000000" opacity="1.000000" stroke="none"
	d="
M792.496826,732.021240
	C812.287781,736.392944 825.620972,747.289062 830.604858,766.996826
	C838.475769,798.120911 819.162354,825.164001 789.837585,829.544373
	C765.632629,833.159973 736.939941,819.968689 732.229675,789.364624
	C727.105408,756.070374 749.313416,733.295898 776.765503,731.483032
	C781.967590,731.139465 786.986755,731.573181 792.496826,732.021240
M810.151001,778.850586
	C810.058716,777.857422 809.991272,776.861267 809.870422,775.871643
	C808.458984,764.318481 802.972107,755.304871 791.529907,752.144470
	C780.322693,749.048950 769.438721,750.363342 760.858337,759.826538
	C754.884949,766.414429 753.908569,774.219971 754.205750,782.574097
	C754.579590,793.081543 758.071716,802.115051 767.906311,806.809387
	C778.365173,811.801697 789.229248,811.894653 799.211304,805.107544
	C808.130981,799.042664 809.964417,789.624756 810.151001,778.850586
z"/>
<path fill="#000000" opacity="1.000000" stroke="none"
	d="
M229.019257,759.000000
	C229.033081,752.002441 229.082291,745.504700 229.043808,739.007446
	C229.022034,735.331116 230.465256,733.420837 234.421661,733.641541
	C237.909378,733.836121 241.432907,733.889038 244.911560,733.623474
	C249.624725,733.263733 251.542831,735.030945 251.390610,739.894104
	C251.124893,748.382629 251.437302,756.887817 251.267746,765.381287
	C251.197845,768.882874 252.584442,770.117371 255.958801,770.083862
	C266.287201,769.981323 276.618591,769.938171 286.945770,770.086670
	C290.752930,770.141418 291.786530,768.502319 291.716431,764.957642
	C291.545166,756.297607 291.782990,747.629700 291.620758,738.969299
	C291.549530,735.169678 292.821747,733.413574 296.804596,733.637207
	C300.624359,733.851624 304.479309,733.879944 308.294159,733.623291
	C312.528290,733.338318 313.978516,735.403748 313.951202,739.236694
	C313.921509,743.401428 313.965118,747.566589 313.966644,751.731567
	C313.975189,774.889709 313.998108,798.047852 313.976440,821.205994
	C313.970093,827.998596 313.705750,828.210754 306.942810,828.236206
	C303.777374,828.248108 300.597717,828.032959 297.449768,828.264221
	C293.167633,828.578735 291.474365,826.985474 291.595612,822.552734
	C291.846039,813.396301 291.406738,804.217529 291.777618,795.069214
	C291.972687,790.257874 290.170807,789.108948 285.736084,789.238953
	C276.414124,789.512146 267.068573,789.585266 257.752899,789.222351
	C252.827759,789.030518 250.945251,790.275452 251.193588,795.541565
	C251.624756,804.684509 251.190262,813.864929 251.371704,823.024658
	C251.449066,826.930298 249.961380,828.502441 246.099442,828.282043
	C242.944122,828.101990 239.770462,828.253296 236.605042,828.238098
	C229.562363,828.204224 229.101578,827.763794 229.084381,820.477722
	C229.038757,801.151550 229.029434,781.825317 229.006714,762.499084
	C229.005539,761.499390 229.013962,760.499695 229.019257,759.000000
z"/>
<path fill="#000000" opacity="1.000000" stroke="none"
	d="
M524.861145,808.778442
	C532.835022,808.889832 533.277893,809.358582 533.133545,816.765320
	C532.879150,829.821899 533.157349,828.216675 521.184509,828.250854
	C504.865814,828.297424 488.545258,828.112610 472.228912,828.310242
	C467.525482,828.367249 465.748962,826.870972 465.773102,822.037109
	C465.913544,793.897461 465.865143,765.756592 465.751770,737.616638
	C465.736816,733.905701 467.150696,732.625305 470.753693,732.642761
	C489.569916,732.733765 508.386993,732.727600 527.203308,732.645630
	C530.775574,732.630066 532.481323,733.887695 532.223755,737.624207
	C532.017944,740.609375 531.932312,743.626526 532.117615,746.609375
	C532.419067,751.459045 530.100830,753.076843 525.522034,753.012512
	C515.033447,752.865234 504.536743,753.154663 494.052734,752.891785
	C489.401794,752.775269 488.060852,754.452698 488.152893,758.981567
	C488.392303,770.760803 488.206940,770.761963 500.159454,770.756104
	C507.319794,770.752625 514.481812,770.853210 521.639771,770.724304
	C525.662781,770.651917 527.312805,772.307129 527.295227,776.374817
	C527.231628,791.070618 528.089661,789.267639 514.988525,789.331787
	C507.661896,789.367676 500.329559,789.496887 493.010254,789.259888
	C489.205170,789.136658 487.965271,790.621033 488.205017,794.231079
	C488.425232,797.547485 488.429016,800.898010 488.237732,804.216675
	C488.036316,807.711548 489.485443,808.898315 492.908478,808.850830
	C503.397308,808.705139 513.889282,808.786011 524.861145,808.778442
z"/>
<path fill="#000000" opacity="1.000000" stroke="none"
	d="
M721.613525,781.335449
	C714.800110,793.682983 703.617615,797.453735 690.946899,798.298889
	C686.302124,798.608643 681.612061,798.532898 676.957886,798.311523
	C673.289917,798.137146 671.851379,799.498413 671.949280,803.193604
	C672.121338,809.686401 671.876038,816.190002 672.023621,822.684082
	C672.114685,826.691406 670.598267,828.521606 666.444580,828.291443
	C662.457764,828.070557 658.449158,828.162170 654.452087,828.230164
	C651.054993,828.287964 649.672668,826.657715 649.675964,823.346680
	C649.703979,794.857117 649.696167,766.367615 649.663879,737.878052
	C649.660583,734.992920 650.534607,732.735107 653.743835,732.782837
	C668.864868,733.007996 684.113525,731.135498 699.075500,734.133789
	C721.571716,738.641724 731.154785,758.815796 721.613525,781.335449
M700.751465,774.087769
	C706.389954,763.041138 702.224854,754.471436 690.220276,752.494080
	C688.420288,752.197632 686.586731,752.013977 684.763550,751.963074
	C671.986694,751.606750 671.986267,751.622253 671.999451,764.547363
	C672.000000,765.046631 672.000061,765.545837 672.001404,766.045105
	C672.036804,778.912415 672.037231,778.853821 684.963745,778.953979
	C690.524719,778.997009 696.021118,779.113159 700.751465,774.087769
z"/>
<path fill="#000000" opacity="1.000000" stroke="none"
	d="
M170.056183,759.148926
	C169.607162,764.175354 172.698700,766.121399 176.306152,767.398132
	C183.675201,770.006165 191.281586,772.012878 198.487900,774.997253
	C214.162827,781.488831 220.239349,795.388977 214.143341,810.689270
	C209.791855,821.611084 200.683777,826.887573 189.691437,829.024231
	C175.279541,831.825562 162.065918,828.314392 149.745056,820.629578
	C146.603653,818.670166 145.772675,816.636414 147.599747,813.260925
	C149.095398,810.497559 150.102173,807.462341 151.240616,804.514771
	C152.501434,801.250244 154.315292,800.596680 157.345291,802.625549
	C163.056168,806.449524 169.209702,809.293457 176.083313,810.430115
	C180.649536,811.185181 185.067398,810.767761 189.282639,808.968994
	C192.491959,807.599487 195.051178,805.252319 195.358093,801.632263
	C195.674850,797.896057 193.196747,795.455383 190.165649,793.741394
	C185.182678,790.923706 179.557053,789.931580 174.128860,788.404236
	C168.177444,786.729553 162.261078,784.876770 157.372452,780.967529
	C142.279617,768.898132 145.137238,744.517517 162.880630,735.982910
	C178.787048,728.332031 194.531570,730.591675 209.854996,738.269836
	C211.274857,738.981201 212.585815,739.990295 212.175247,741.708740
	C211.017792,746.553284 209.839523,751.446655 207.170502,755.723328
	C205.466675,758.453552 203.109528,757.261780 201.039078,756.053711
	C194.215698,752.072266 186.905792,750.224915 179.028931,751.125122
	C174.433197,751.650391 170.544724,753.256653 170.056183,759.148926
z"/>
<path fill="#000000" opacity="1.000000" stroke="none"
	d="
M625.561218,823.703186
	C608.154663,834.143494 587.578186,830.421631 572.640198,819.851440
	C570.431396,818.288391 569.607788,816.553955 570.876648,813.917114
	C572.747986,810.027893 573.398804,804.625977 576.425537,802.448914
	C580.333435,799.638123 583.694214,805.257202 587.484802,806.772644
	C594.060913,809.401611 600.586487,811.862549 607.786865,810.340881
	C613.857666,809.057922 617.639526,805.589539 617.632690,801.221741
	C617.624023,795.663269 613.267395,793.794006 609.025269,792.138916
	C602.213440,789.481018 594.925171,788.283264 588.198792,785.295959
	C572.747559,778.433777 566.833130,761.255554 575.145325,746.505737
	C580.315186,737.332092 589.009155,733.076965 598.905334,731.833435
	C609.989136,730.440674 620.735718,732.469299 630.893066,737.468445
	C634.644592,739.314941 635.877747,741.363586 633.737183,745.243591
	C632.628357,747.253479 632.165527,749.617310 631.389648,751.813721
	C629.284790,757.772095 627.735779,758.414795 622.300476,755.394897
	C616.151550,751.978699 609.604187,750.395142 602.599060,751.092102
	C598.270264,751.522766 594.323608,752.730591 593.306885,757.827148
	C592.271118,763.019348 595.397583,765.595276 599.553711,767.239563
	C603.415710,768.767334 607.394592,770.013611 611.361145,771.259277
	C617.902283,773.313599 624.475403,775.434387 629.768372,779.938904
	C643.690063,791.786804 641.809204,811.971558 625.561218,823.703186
z"/>
<path fill="#000000" opacity="1.000000" stroke="none"
	d="
M654.420288,597.164551
	C669.195068,592.894287 683.718079,590.905762 698.528381,594.673096
	C705.295105,596.394348 711.568237,599.135498 717.043030,603.798645
	C715.274719,605.971252 713.301758,605.253418 711.656189,605.061523
	C677.002380,601.021912 646.391785,610.991333 618.087646,630.704285
	C585.425659,653.452271 552.278320,675.484741 517.934814,695.699768
	C508.322632,701.357727 498.828339,700.230896 488.768280,699.910583
	C488.979797,696.961487 490.968109,696.315125 492.381104,695.407349
	C537.231628,666.593689 581.610718,637.036804 627.266785,609.492310
	C635.686096,604.412903 644.598022,600.227478 654.420288,597.164551
z"/>
<path fill="#000000" opacity="1.000000" stroke="none"
	d="
M883.083496,817.897827
	C883.066650,820.047729 883.061401,821.713013 883.029114,823.377686
	C882.966431,826.610657 881.403625,828.289673 878.073914,828.253723
	C874.077820,828.210571 870.076721,828.130920 866.085388,828.276123
	C861.829834,828.430847 860.688965,826.225525 860.708801,822.377991
	C860.799072,804.893127 860.743103,787.407532 860.738037,769.922241
	C860.736816,765.759094 860.604492,761.591187 860.764099,757.434326
	C860.888489,754.195374 859.522156,752.919312 856.356445,752.974792
	C851.029419,753.068298 845.696838,752.884155 840.371460,753.014526
	C836.312073,753.113892 834.560486,751.356140 834.797058,747.310852
	C834.942505,744.822876 834.859985,742.314270 834.753723,739.820374
	C834.453430,732.774048 834.485229,732.684143 841.287476,732.679504
	C862.103333,732.665344 882.919128,732.663269 903.734985,732.682068
	C910.046265,732.687805 910.566040,733.164124 910.187927,739.625183
	C909.384644,753.351929 912.748352,753.056702 896.472717,753.002991
	C892.185791,752.988892 887.862305,752.587952 883.082825,753.536377
	C883.082825,774.891541 883.082825,796.152222 883.083496,817.897827
z"/>
<path fill="#000000" opacity="1.000000" stroke="none"
	d="
M329.643646,753.000610
	C329.644958,747.841064 329.737213,743.179199 329.619080,738.522583
	C329.535522,735.228210 330.715027,733.545715 334.236450,733.659851
	C338.558685,733.799866 342.890228,733.758484 347.215210,733.671692
	C350.207489,733.611755 351.348633,734.993042 351.344635,737.906738
	C351.305115,766.696716 351.307648,795.486694 351.339783,824.276733
	C351.342865,827.017822 350.115204,828.232605 347.436310,828.216919
	C343.442688,828.193481 339.440552,828.063477 335.457245,828.270752
	C331.144989,828.495117 329.557159,826.691040 329.592621,822.396667
	C329.732788,805.423279 329.647919,788.448120 329.646484,771.473572
	C329.645966,765.482544 329.645264,759.491516 329.643646,753.000610
z"/>
<path fill="#000000" opacity="1.000000" stroke="none"
	d="
M578.906128,913.971191
	C572.558289,919.032837 565.706604,921.528381 557.877991,921.353943
	C552.385986,921.231567 546.886292,921.246948 541.394836,921.389038
	C538.058228,921.475403 536.608948,920.299744 536.632690,916.770508
	C536.744568,900.120056 536.677734,883.468323 536.675232,866.817078
	C536.674927,864.706665 536.795532,862.625244 539.700134,862.722229
	C548.153748,863.004517 556.655518,861.739441 565.062622,863.515137
	C575.747131,865.771912 584.047119,871.203491 587.059692,882.136292
	C590.309387,893.929749 588.654480,904.908813 578.906128,913.971191
M575.825195,900.043823
	C580.960876,881.974976 572.434082,870.850891 553.690247,871.166382
	C552.858093,871.180359 552.023499,871.242126 551.194336,871.198914
	C548.466064,871.056641 547.310059,872.265442 547.328308,875.049438
	C547.402527,886.368164 547.355774,897.687683 547.360657,909.006897
	C547.361389,910.733032 547.435791,912.510254 549.717041,912.717407
	C558.468506,913.512268 571.766357,912.611389 575.825195,900.043823
z"/>
<path fill="#000000" opacity="1.000000" stroke="none"
	d="
M669.348938,861.767944
	C688.781921,861.487305 701.197327,872.028564 702.011230,890.824341
	C702.721069,907.215088 692.524597,920.677063 674.595764,922.237183
	C657.348572,923.737915 643.520813,911.182434 642.593140,894.534973
	C641.750000,879.405334 651.440002,864.104370 669.348938,861.767944
M657.900635,877.481812
	C653.455688,884.015564 653.200623,891.375793 654.624329,898.650208
	C657.241699,912.024536 671.164917,918.003235 682.281921,910.897095
	C689.270752,906.429626 692.289856,896.946960 690.302124,886.297607
	C688.977295,879.200134 685.641174,873.581360 678.378967,871.744629
	C670.977844,869.872864 663.757080,870.315674 657.900635,877.481812
z"/>
<path fill="#000000" opacity="1.000000" stroke="none"
	d="
M513.250671,886.998596
	C513.163025,892.983643 513.765564,898.587463 512.850403,903.931274
	C510.595612,917.097656 497.569580,924.893799 483.741089,921.953552
	C471.806549,919.416016 465.182495,912.021973 464.766449,899.808716
	C464.387085,888.672302 464.737122,877.512756 464.566956,866.366516
	C464.507751,862.488892 466.867004,862.574768 469.486115,862.674316
	C472.205658,862.777649 475.395630,861.939636 475.355469,866.536560
	C475.259491,877.518372 475.294098,888.502075 475.363678,899.484436
	C475.439087,911.389648 486.338928,917.761841 496.624023,911.881470
	C502.440063,908.556152 503.465546,902.705322 503.611572,896.801575
	C503.850159,887.156067 503.743683,877.499390 503.629333,867.849304
	C503.589935,864.524841 504.207062,862.588562 508.233490,862.573669
	C512.354248,862.558472 513.379883,864.372925 513.289001,868.028992
	C513.136047,874.182190 513.249084,880.341980 513.250671,886.998596
z"/>
<path fill="#000000" opacity="1.000000" stroke="none"
	d="
M369.396484,862.145142
	C372.361847,862.986633 374.901398,863.755188 377.476288,864.377991
	C381.714752,865.403320 382.052216,867.717651 380.362610,871.369568
	C379.099579,874.099609 377.672974,875.008179 374.994904,873.496094
	C371.402374,871.467590 367.544464,870.625305 363.453461,871.130066
	C360.097412,871.544067 357.222412,872.920349 356.494629,876.544617
	C355.748932,880.258240 357.863617,882.550903 361.119629,883.852234
	C364.668854,885.270813 368.302582,886.478577 371.848145,887.905640
	C381.626587,891.841858 385.414673,897.753174 384.196808,907.014160
	C383.158173,914.912170 375.884369,921.301697 366.727448,922.237610
	C359.839111,922.941589 353.608673,920.947266 347.705780,917.503052
	C344.026062,915.355957 346.269073,913.030762 347.285461,910.740173
	C348.484589,908.037964 350.278809,908.133057 352.507477,909.626221
	C357.389191,912.896851 362.608429,914.688904 368.530914,912.762329
	C371.467621,911.807007 373.368896,909.987366 373.747681,906.771484
	C374.141235,903.429810 373.103455,900.741577 369.968689,899.365601
	C365.711945,897.497009 361.277496,896.033447 357.019409,894.167664
	C346.610443,889.606750 342.665985,878.976440 348.337433,869.993713
	C353.121094,862.417114 360.833527,861.400513 369.396484,862.145142
z"/>
<path fill="#000000" opacity="1.000000" stroke="none"
	d="
M437.022400,871.289795
	C435.382477,871.294495 434.203491,871.410156 433.052765,871.278625
	C429.229767,870.841370 428.230011,872.667419 428.271332,876.245911
	C428.423279,889.403809 428.227844,902.565918 428.386139,915.723694
	C428.432709,919.594666 427.551758,921.417175 423.161133,921.444885
	C418.615784,921.473694 417.490723,919.713257 417.554199,915.520996
	C417.748352,902.697388 417.417328,889.863892 417.729950,877.044922
	C417.845886,872.290405 416.193268,870.783081 411.710968,871.233154
	C409.074738,871.497864 406.385742,871.200562 403.721313,871.229736
	C400.682556,871.263000 399.729523,869.634094 399.676605,866.814697
	C399.620789,863.839539 400.799438,862.617126 403.796295,862.635925
	C416.289215,862.714539 428.783173,862.723022 441.276093,862.649963
	C444.280579,862.632446 445.417480,863.847595 445.375763,866.819885
	C445.337097,869.578064 444.675507,871.394348 441.493347,871.260498
	C440.163727,871.204529 438.828796,871.274780 437.022400,871.289795
z"/>
<path fill="#000000" opacity="1.000000" stroke="none"
	d="
M621.159790,898.999939
	C621.148682,905.331482 621.045166,911.164917 621.158081,916.994141
	C621.238403,921.144531 618.660645,921.409912 615.545837,921.368469
	C612.573486,921.328918 609.767151,921.471436 609.780151,917.191040
	C609.831238,900.362671 609.833069,883.533813 609.742065,866.705688
	C609.718079,862.271545 612.677551,862.745850 615.540100,862.645569
	C618.690796,862.535217 621.194092,862.903564 621.164978,867.009155
	C621.090637,877.505615 621.152527,888.002991 621.159790,898.999939
z"/>
<path fill="#000000" opacity="1.000000" stroke="none"
	d="
M508.988647,638.252625
	C501.099792,641.203308 494.431976,638.336182 492.159637,631.323730
	C490.050842,624.815979 494.346527,617.178345 500.886963,615.806763
	C507.772308,614.362854 514.359497,618.896912 515.484375,625.969421
	C516.354858,631.442017 513.454956,635.100952 508.988647,638.252625
z"/>
<path fill="#000000" opacity="1.000000" stroke="none"
	d="
M441.118103,286.890991
	C459.056885,284.195831 475.330933,287.382538 490.101135,297.320648
	C495.222443,300.766479 498.704681,305.619873 500.795380,311.402893
	C501.533936,313.445862 501.987244,315.790680 500.161621,317.490997
	C498.379059,319.151245 496.391083,317.901154 494.552216,317.204102
	C473.435150,309.198944 451.916718,307.846985 430.033813,313.478149
	C428.077545,313.981567 427.072113,313.726166 425.856537,312.165009
	C420.455322,305.228333 421.801422,296.106140 429.060669,291.215546
	C432.591919,288.836548 436.579224,287.726746 441.118103,286.890991
z"/>
<path fill="#000000" opacity="1.000000" stroke="none"
	d="
M633.692017,365.901489
	C638.420044,354.770050 645.869690,346.443451 655.815125,340.394470
	C662.372375,336.406219 669.217712,336.302490 675.559753,340.701721
	C682.376770,345.430511 685.608459,352.103210 684.406677,360.553070
	C684.009766,363.343964 682.932800,365.865265 679.802368,366.344452
	C676.625916,366.830719 675.635742,364.245697 674.567871,361.956848
	C668.963501,349.943542 665.044250,349.302765 655.896851,358.912476
	C655.219543,359.623932 654.619141,360.408447 653.692200,361.502106
	C666.147705,371.533203 670.691284,383.625519 662.344421,398.228668
	C658.515320,404.927765 649.405640,407.903778 641.843140,405.865936
	C641.728516,403.460785 643.971985,403.184479 645.299316,402.181885
	C653.358582,396.094299 656.303528,385.340912 652.026062,377.332367
	C649.317688,372.261414 646.458801,372.032349 643.335144,376.869110
	C640.037231,381.975769 636.535461,386.672852 629.374023,387.923035
	C627.865845,379.907532 631.386047,373.203430 633.692017,365.901489
z"/>
<path fill="#000000" opacity="1.000000" stroke="none"
	d="
M450.076782,346.088928
	C446.000854,346.751617 442.642639,348.196228 439.455017,349.998932
	C436.670563,351.573608 435.089081,350.369659 433.916992,347.938965
	C430.862030,341.603363 433.823334,334.665405 441.064758,331.838531
	C449.366913,328.597473 457.706024,330.162262 465.946075,332.310669
	C470.471741,333.490631 474.708252,335.364563 478.489838,338.221344
	C480.415009,339.675720 481.903870,341.475281 482.750671,343.633636
	C483.600403,345.799408 484.020966,348.244324 482.125183,350.166382
	C480.329712,351.986725 478.402222,350.696991 476.579926,349.996338
	C468.171387,346.763245 459.726379,343.798889 450.076782,346.088928
z"/>
</svg>
