<?xml version="1.0" encoding="UTF-8"?>
<svg version="1.1" xmlns="http://www.w3.org/2000/svg" width="500" height="500">
<path d="M0 0 C2.58446699 1.32721603 5.18465756 2.62252881 7.78564453 3.91699219 C7.55748047 3.10875 7.32931641 2.30050781 7.09423828 1.46777344 C6.80677734 0.39914063 6.51931641 -0.66949219 6.22314453 -1.77050781 C5.93310547 -2.82625 5.64306641 -3.88199219 5.34423828 -4.96972656 C4.78439686 -8.08996163 4.93873689 -10.05994015 5.78564453 -13.08300781 C10.57040906 -12.66082271 13.58299731 -10.50478353 16.78564453 -7.08300781 C20.0522437 -2.72155947 22.33349968 1.63646546 23.78564453 6.91699219 C25.76564453 4.27699219 27.74564453 1.63699219 29.78564453 -1.08300781 C33.78564453 0.91699219 33.78564453 0.91699219 34.78564453 2.91699219 C34.91921906 6.59029183 34.95280133 9.41552178 33.78564453 12.91699219 C35.01541016 12.8821875 35.01541016 12.8821875 36.27001953 12.84667969 C37.88650391 12.81960937 37.88650391 12.81960937 39.53564453 12.79199219 C40.60298828 12.76878906 41.67033203 12.74558594 42.77001953 12.72167969 C45.71034559 12.91211531 47.30926331 13.39029114 49.78564453 14.91699219 C49.39967439 17.71527575 48.9842788 18.73758059 46.84814453 20.66699219 C44.78564453 21.91699219 44.78564453 21.91699219 42.78564453 21.91699219 C42.78564453 22.90699219 42.78564453 23.89699219 42.78564453 24.91699219 C43.52814453 25.14644531 44.27064453 25.37589844 45.03564453 25.61230469 C52.67468105 29.23650667 56.77165795 39.20113736 59.69970703 46.71777344 C61.28338838 51.38336705 62.57849927 56.11192587 63.79345703 60.88574219 C64.75704838 63.82962758 65.90554895 65.5134609 67.78564453 67.91699219 C67.66064453 70.54199219 67.66064453 70.54199219 66.78564453 72.91699219 C65.30064453 73.90699219 65.30064453 73.90699219 63.78564453 74.91699219 C63.056605 77.66353704 62.48068779 80.31701871 61.97314453 83.10449219 C59.34542701 96.0757671 54.45757218 107.46601523 47.78564453 118.91699219 C46.99370185 120.31266894 46.20199651 121.70848042 45.41064453 123.10449219 C44.87439453 124.03261719 44.33814453 124.96074219 43.78564453 125.91699219 C43.12564453 125.91699219 42.46564453 125.91699219 41.78564453 125.91699219 C41.12564453 127.89699219 40.46564453 129.87699219 39.78564453 131.91699219 C39.12564453 131.91699219 38.46564453 131.91699219 37.78564453 131.91699219 C37.53943359 132.59632813 37.29322266 133.27566406 37.03955078 133.97558594 C35.26434043 138.13986442 32.93058409 141.95142115 30.61962891 145.83300781 C28.8790964 148.8089645 27.34190524 151.48529153 26.78564453 154.91699219 C27.39150391 155.10132813 27.99736328 155.28566406 28.62158203 155.47558594 C31.79195653 157.58726137 32.37114655 160.48777989 33.41064453 163.97949219 C33.62809326 164.65761963 33.84554199 165.33574707 34.06958008 166.03442383 C35.19553274 169.62470955 36.04391685 173.13790657 36.59814453 176.85449219 C37.49542108 181.63996712 40.5557568 184.16113022 44.10595703 187.28808594 C44.66025391 187.825625 45.21455078 188.36316406 45.78564453 188.91699219 C45.78564453 189.57699219 45.78564453 190.23699219 45.78564453 190.91699219 C46.44564453 190.91699219 47.10564453 190.91699219 47.78564453 190.91699219 C57.78957062 203.67875736 63.99237973 219.3138944 67.78564453 234.91699219 C68.15496094 236.3671875 68.15496094 236.3671875 68.53173828 237.84667969 C70.72858498 248.30063982 69.96119787 259.29196384 69.78564453 269.91699219 C67.14564453 269.91699219 64.50564453 269.91699219 61.78564453 269.91699219 C61.75986328 268.63308594 61.73408203 267.34917969 61.70751953 266.02636719 C60.90314538 237.73021213 54.60669379 213.56119883 35.78564453 191.91699219 C35.78564453 191.25699219 35.78564453 190.59699219 35.78564453 189.91699219 C33.56947812 188.58859169 33.56947812 188.58859169 30.78564453 187.91699219 C28.24667113 189.12015664 28.24667113 189.12015664 25.84814453 191.22949219 C21.70882841 194.45572387 17.52936557 197.48252925 13.09814453 200.29199219 C12.2254895 200.84838379 12.2254895 200.84838379 11.33520508 201.41601562 C7.4749743 203.86791799 3.59394873 206.2862478 -0.28857422 208.70263672 C-19.76906269 220.44514528 -19.76906269 220.44514528 -37.21435547 234.91699219 C-36.29396484 234.34851563 -35.37357422 233.78003906 -34.42529297 233.19433594 C-7.25797063 216.56415952 -7.25797063 216.56415952 7.66064453 216.54199219 C8.52044922 216.5175 9.38025391 216.49300781 10.26611328 216.46777344 C16.50513035 216.43937124 20.40534402 217.75871833 25.78564453 220.91699219 C25.78564453 221.57699219 25.78564453 222.23699219 25.78564453 222.91699219 C24.55330078 222.954375 23.32095703 222.99175781 22.05126953 223.03027344 C0.52269609 223.82133247 -13.87864416 230.32997129 -31.32519531 242.60253906 C-34.04480993 244.49481162 -36.80475844 246.30891979 -39.58935547 248.10449219 C-40.44271484 248.65492188 -41.29607422 249.20535156 -42.17529297 249.77246094 C-44.21435547 250.91699219 -44.21435547 250.91699219 -46.21435547 250.91699219 C-46.21435547 251.57699219 -46.21435547 252.23699219 -46.21435547 252.91699219 C-47.92333984 254.16625977 -47.92333984 254.16625977 -50.30810547 255.56152344 C-51.60748047 256.33012695 -51.60748047 256.33012695 -52.93310547 257.11425781 C-53.85091797 257.64728516 -54.76873047 258.1803125 -55.71435547 258.72949219 C-57.49600581 259.77698864 -59.2772606 260.82515819 -61.05810547 261.87402344 C-61.93208984 262.3818335 -62.80607422 262.88964355 -63.70654297 263.4128418 C-66.01088225 264.79495184 -68.21245219 266.27328878 -70.43310547 267.78417969 C-74.07931117 270.08245296 -76.86039131 270.45626115 -81.21435547 270.22949219 C-82.91591797 270.16181641 -82.91591797 270.16181641 -84.65185547 270.09277344 C-85.49748047 270.03476562 -86.34310547 269.97675781 -87.21435547 269.91699219 C-85.90748854 265.9963914 -83.57807409 264.96574447 -80.21435547 262.91699219 C-78.94053512 262.12072932 -77.66711571 261.32382478 -76.39404297 260.52636719 C-75.71696289 260.10548828 -75.03988281 259.68460937 -74.34228516 259.25097656 C-70.64610777 256.93386858 -66.99572323 254.5462244 -63.33935547 252.16699219 C-57.99750363 248.69578884 -52.62669185 245.27736909 -47.21435547 241.91699219 C-48.45185547 241.66949219 -49.68935547 241.42199219 -50.96435547 241.16699219 C-54.71817413 240.23519323 -56.83440382 239.09026105 -59.21435547 235.91699219 C-59.21435547 235.25699219 -59.21435547 234.59699219 -59.21435547 233.91699219 C-59.87435547 233.91699219 -60.53435547 233.91699219 -61.21435547 233.91699219 C-62.20435547 231.44199219 -62.20435547 231.44199219 -63.21435547 228.91699219 C-63.87435547 228.91699219 -64.53435547 228.91699219 -65.21435547 228.91699219 C-66.61849688 227.03017717 -67.93908485 225.0806928 -69.21435547 223.10449219 C-69.91560547 222.02554688 -70.61685547 220.94660156 -71.33935547 219.83496094 C-72.26748047 218.39056641 -72.26748047 218.39056641 -73.21435547 216.91699219 C-73.87435547 215.92699219 -74.53435547 214.93699219 -75.21435547 213.91699219 C-86.28342362 228.49257365 -93.09913264 244.77583727 -99.21435547 261.91699219 C-100.2057465 264.58697522 -101.20948761 267.2520356 -102.21435547 269.91699219 C-104.52435547 269.91699219 -106.83435547 269.91699219 -109.21435547 269.91699219 C-112.38007108 261.36544873 -104.64483804 248.71993411 -101.21435547 240.91699219 C-102.06900391 240.81128906 -102.92365234 240.70558594 -103.80419922 240.59667969 C-107.47835502 239.86437372 -110.39660742 238.64631298 -113.77685547 237.04199219 C-114.87126953 236.52894531 -115.96568359 236.01589844 -117.09326172 235.48730469 C-120.8296853 233.60740196 -124.24515764 231.88619001 -127.21435547 228.91699219 C-127.4887538 236.12216134 -126.43115465 242.94045602 -125.27685547 250.04199219 C-125.09445313 251.19570313 -124.91205078 252.34941406 -124.72412109 253.53808594 C-123.71835318 259.89399162 -123.71835318 259.89399162 -122.59106445 266.22900391 C-122.40459351 267.55955811 -122.40459351 267.55955811 -122.21435547 268.91699219 C-123.21435547 269.91699219 -123.21435547 269.91699219 -125.06201172 270.01464844 C-127.11279297 269.98209635 -129.16357422 269.94954427 -131.21435547 269.91699219 C-132.87764679 262.21033623 -134.0429438 254.47888639 -135.08935547 246.66699219 C-135.25935059 245.41426514 -135.4293457 244.16153809 -135.60449219 242.87084961 C-135.96229765 240.22870764 -136.31888842 237.58643799 -136.67333984 234.94384766 C-137.03162837 232.27327112 -137.39224129 229.60302804 -137.75537109 226.93310547 C-138.93420856 218.26436338 -140.09045311 209.59303278 -141.21435547 200.91699219 C-141.33352325 200.00421509 -141.45269104 199.09143799 -141.57546997 198.15100098 C-143.11253127 186.19879348 -143.5735915 174.37782321 -143.6706543 162.33447266 C-143.69231843 160.06473764 -143.73164383 157.79581747 -143.77294922 155.52636719 C-143.77312294 154.50914581 -143.77312294 154.50914581 -143.77330017 153.47137451 C-143.94295704 145.30350747 -147.99188194 140.78628018 -153.37451172 135.16308594 C-157.53542884 130.08341004 -157.57056269 125.03400089 -157.77685547 118.72949219 C-157.72843795 113.15262673 -157.72843795 113.15262673 -159.21435547 107.91699219 C-163.41203653 108.24787537 -163.41203653 108.24787537 -166.89794922 110.39355469 C-168.89053749 114.21317493 -168.5714893 117.80350988 -168.46435547 122.04199219 C-168.45662109 123.27755859 -168.45662109 123.27755859 -168.44873047 124.53808594 C-168.49896485 128.86457265 -168.49896485 128.86457265 -167.21435547 132.91699219 C-167.08020075 135.58935428 -167.17117006 138.23949707 -167.21435547 140.91699219 C-168.86435547 140.58699219 -170.51435547 140.25699219 -172.21435547 139.91699219 C-172.54435547 138.92699219 -172.87435547 137.93699219 -173.21435547 136.91699219 C-180.80435547 136.91699219 -188.39435547 136.91699219 -196.21435547 136.91699219 C-193.73935547 140.38199219 -193.73935547 140.38199219 -191.21435547 143.91699219 C-191.21435547 144.57699219 -191.21435547 145.23699219 -191.21435547 145.91699219 C-190.55435547 145.91699219 -189.89435547 145.91699219 -189.21435547 145.91699219 C-189.21435547 146.57699219 -189.21435547 147.23699219 -189.21435547 147.91699219 C-188.55435547 147.91699219 -187.89435547 147.91699219 -187.21435547 147.91699219 C-187.21435547 148.57699219 -187.21435547 149.23699219 -187.21435547 149.91699219 C-186.52083984 150.16835937 -185.82732422 150.41972656 -185.11279297 150.67871094 C-181.78343858 152.1010901 -178.8732901 153.74972128 -175.83935547 155.72949219 C-174.75912109 156.3959375 -173.67888672 157.06238281 -172.56591797 157.74902344 C-169.29595307 162.15424193 -169.99332011 165.1074538 -170.65527344 170.40942383 C-170.93201904 172.14567017 -170.93201904 172.14567017 -171.21435547 173.91699219 C-171.45822998 175.49951782 -171.45822998 175.49951782 -171.70703125 177.11401367 C-172.24353902 180.33030509 -172.84332231 183.52849089 -173.46435547 186.72949219 C-173.68687988 187.90688965 -173.9094043 189.08428711 -174.13867188 190.29736328 C-175.70392797 198.50089362 -177.42756253 206.66475258 -179.19116211 214.82739258 C-180.62814216 221.65737272 -181.85497105 228.51227876 -183.01513672 235.39355469 C-183.24892029 236.77989609 -183.24892029 236.77989609 -183.48742676 238.19424438 C-184.27140991 242.86312779 -185.04365077 247.53370761 -185.80371094 252.20654297 C-186.09028708 253.93815848 -186.37690627 255.66976687 -186.66357422 257.40136719 C-186.79049149 258.20136139 -186.91740875 259.00135559 -187.048172 259.82559204 C-187.65889863 263.48846437 -188.25084792 266.72569524 -190.21435547 269.91699219 C-192.52435547 269.91699219 -194.83435547 269.91699219 -197.21435547 269.91699219 C-197.54700408 262.83247592 -196.44208239 256.12846768 -195.24291992 249.15527344 C-194.90522954 247.18666179 -194.58023392 245.21588627 -194.25537109 243.24511719 C-193.09887303 236.39588689 -191.71664424 229.69336089 -189.96655273 222.97314453 C-188.51315879 217.06805354 -187.45968549 211.07995981 -186.33935547 205.10449219 C-183.85200802 191.9915655 -181.13976826 178.93998754 -178.21435547 165.91699219 C-178.66238525 165.59537109 -179.11041504 165.27375 -179.57202148 164.94238281 C-190.90213713 156.76170964 -199.83782975 149.6112738 -206.21435547 136.91699219 C-206.96434814 137.15929565 -206.96434814 137.15929565 -207.72949219 137.40649414 C-211.13902361 138.10695889 -214.50669757 138.07958076 -217.97216797 138.08496094 C-218.71643036 138.08828934 -219.46069275 138.09161774 -220.22750854 138.095047 C-221.79587182 138.10009721 -223.36424579 138.10245591 -224.93261719 138.10229492 C-227.33790535 138.10449086 -229.74274156 138.12269192 -232.14794922 138.14160156 C-233.67268723 138.14453394 -235.19742742 138.14651978 -236.72216797 138.14746094 C-237.44300568 138.15464645 -238.16384338 138.16183197 -238.90652466 138.16923523 C-243.98551739 138.14583026 -243.98551739 138.14583026 -246.21435547 135.91699219 C-246.71435547 133.60449219 -246.71435547 133.60449219 -246.21435547 130.91699219 C-243.46435547 128.35449219 -243.46435547 128.35449219 -241.81591797 127.12011719 C-239.75281406 125.57027328 -238.00132135 123.77268752 -236.21435547 121.91699219 C-237.14248047 120.58667969 -237.14248047 120.58667969 -238.08935547 119.22949219 C-242.6065643 112.18796077 -242.88208972 106.15902543 -242.21435547 97.91699219 C-241.49028175 94.98799721 -240.49812492 92.68203409 -239.21435547 89.91699219 C-238.82248047 88.92699219 -238.43060547 87.93699219 -238.02685547 86.91699219 C-237.62466797 85.92699219 -237.62466797 85.92699219 -237.21435547 84.91699219 C-237.87435547 84.91699219 -238.53435547 84.91699219 -239.21435547 84.91699219 C-242.54703646 81.84741759 -245.588201 78.61306145 -248.21435547 74.91699219 C-248.21435547 73.92699219 -248.21435547 72.93699219 -248.21435547 71.91699219 C-245.65712317 70.63837604 -243.84698444 70.80362609 -240.98779297 70.81933594 C-239.44091797 70.82416992 -239.44091797 70.82416992 -237.86279297 70.82910156 C-236.24244141 70.84166992 -236.24244141 70.84166992 -234.58935547 70.85449219 C-232.95740234 70.86125977 -232.95740234 70.86125977 -231.29248047 70.86816406 C-228.59971758 70.87997443 -225.90706359 70.8964444 -223.21435547 70.91699219 C-223.82720748 69.47317996 -224.44705853 68.03233734 -225.06982422 66.59277344 C-225.41424561 65.79009033 -225.75866699 64.98740723 -226.11352539 64.16040039 C-228.92261536 58.43568809 -233.8059016 55.78029129 -239.21435547 52.91699219 C-238.88435547 51.92699219 -238.55435547 50.93699219 -238.21435547 49.91699219 C-235.73935547 49.42199219 -235.73935547 49.42199219 -233.21435547 48.91699219 C-233.21435547 48.25699219 -233.21435547 47.59699219 -233.21435547 46.91699219 C-231.75341797 45.62011719 -231.75341797 45.62011719 -229.83935547 44.16699219 C-226.44937737 41.33745402 -225.10028096 39.34661965 -224.21435547 34.91699219 C-224.08703324 33.50053234 -223.96211612 32.08385466 -223.83935547 30.66699219 C-223.21435547 26.91699219 -223.21435547 26.91699219 -221.15185547 25.41699219 C-220.51248047 25.25199219 -219.87310547 25.08699219 -219.21435547 24.91699219 C-217.68104014 27.71751026 -216.87889679 30.15384366 -216.33935547 33.29199219 C-215.43318558 37.56293242 -214.0495974 40.51470187 -211.21435547 43.91699219 C-209.57457229 44.96049058 -207.91341181 45.973072 -206.21435547 46.91699219 C-206.21435547 47.57699219 -206.21435547 48.23699219 -206.21435547 48.91699219 C-204.56435547 49.24699219 -202.91435547 49.57699219 -201.21435547 49.91699219 C-200.88435547 50.90699219 -200.55435547 51.89699219 -200.21435547 52.91699219 C-201.65005812 53.73266393 -203.08798981 54.54441311 -204.52685547 55.35449219 C-205.32736328 55.80695313 -206.12787109 56.25941406 -206.95263672 56.72558594 C-209.21435547 57.91699219 -209.21435547 57.91699219 -212.21435547 58.91699219 C-214.5192048 62.51831928 -215.74965652 66.9223587 -217.21435547 70.91699219 C-216.44349609 70.90539062 -215.67263672 70.89378906 -214.87841797 70.88183594 C-213.87552734 70.8728125 -212.87263672 70.86378906 -211.83935547 70.85449219 C-210.84162109 70.84289062 -209.84388672 70.83128906 -208.81591797 70.81933594 C-206.21435547 70.91699219 -206.21435547 70.91699219 -204.21435547 71.91699219 C-201.47771377 71.99172808 -198.76668231 72.00824562 -196.03076172 71.97949219 C-195.21945297 71.97570557 -194.40814423 71.97191895 -193.57225037 71.96801758 C-190.0944104 71.95163465 -186.61668685 71.92352119 -183.13891602 71.89648438 C-180.60287008 71.87842915 -178.06684312 71.8663149 -175.53076172 71.85449219 C-174.74318985 71.84619385 -173.95561798 71.83789551 -173.1441803 71.8293457 C-169.89686439 71.81473351 -167.31851548 71.88227218 -164.21435547 72.91699219 C-164.54435547 71.26699219 -164.87435547 69.61699219 -165.21435547 67.91699219 C-166.20435547 68.57699219 -167.19435547 69.23699219 -168.21435547 69.91699219 C-170.88334834 70.00430929 -173.37534631 69.96507347 -176.02685547 69.79199219 C-176.72617188 69.76878906 -177.42548828 69.74558594 -178.14599609 69.72167969 C-184.32475696 69.35176323 -188.11677321 67.07284062 -192.46435547 62.60449219 C-197.90171326 54.25426415 -196.71139129 44.74079531 -194.83935547 35.43261719 C-193.41946992 29.71757786 -191.27540895 26.02263864 -186.21435547 22.91699219 C-183.88102214 22.58365885 -181.5476888 22.25032552 -179.21435547 21.91699219 C-178.43060547 21.27761719 -177.64685547 20.63824219 -176.83935547 19.97949219 C-174.10116762 17.82805888 -173.02780596 17.57236298 -169.71435547 17.04199219 C-164.78488788 16.13906991 -163.27434955 13.86277403 -160.21435547 9.91699219 C-154.67534639 6.83976492 -149.98149599 6.14424541 -143.77685547 7.41699219 C-143.26123047 7.58199219 -142.74560547 7.74699219 -142.21435547 7.91699219 C-142.70935547 6.92699219 -142.70935547 6.92699219 -143.21435547 5.91699219 C-143.25434747 3.91739207 -143.25782346 1.91651977 -143.21435547 -0.08300781 C-139.34249099 -1.53016508 -136.39112267 -0.62719961 -132.46435547 0.35449219 C-130.70865234 0.78568359 -130.70865234 0.78568359 -128.91748047 1.22558594 C-128.02544922 1.45375 -127.13341797 1.68191406 -126.21435547 1.91699219 C-126.58689453 1.26472656 -126.95943359 0.61246094 -127.34326172 -0.05957031 C-131.25552185 -7.28712445 -131.25552185 -7.28712445 -131.02685547 -11.70800781 C-130.75873047 -12.49175781 -130.49060547 -13.27550781 -130.21435547 -14.08300781 C-128.630678 -13.94096041 -127.04742229 -13.79420629 -125.46435547 -13.64550781 C-124.58263672 -13.56429687 -123.70091797 -13.48308594 -122.79248047 -13.39941406 C-120.21435547 -13.08300781 -120.21435547 -13.08300781 -118.27685547 -12.56738281 C-108.81701152 -10.34575279 -98.58768845 -12.36092854 -89.21435547 -14.02050781 C-56.46921066 -19.8120282 -29.50570573 -15.2100936 0 0 Z M-156.21435547 17.91699219 C-158.14228255 20.35825739 -158.14228255 20.35825739 -159.83935547 23.22949219 C-160.42974609 24.174375 -161.02013672 25.11925781 -161.62841797 26.09277344 C-166.25257199 34.32741225 -167.76458002 44.90520729 -165.70654297 54.21386719 C-165.54412109 54.77589844 -165.38169922 55.33792969 -165.21435547 55.91699219 C-162.20403803 56.85122863 -161.34785279 56.9614913 -158.21435547 55.91699219 C-156.13229888 50.93429266 -155.17468339 45.53304321 -154.77685547 40.16699219 C-154.39803764 35.59647272 -152.72232799 32.71940214 -150.21435547 28.91699219 C-149.22435547 29.24699219 -148.23435547 29.57699219 -147.21435547 29.91699219 C-146.37529982 28.79625357 -145.54327716 27.67024671 -144.71435547 26.54199219 C-144.25029297 25.91550781 -143.78623047 25.28902344 -143.30810547 24.64355469 C-142.03597446 22.97604606 -142.03597446 22.97604606 -142.21435547 20.91699219 C-141.55435547 20.91699219 -140.89435547 20.91699219 -140.21435547 20.91699219 C-140.21435547 19.92699219 -140.21435547 18.93699219 -140.21435547 17.91699219 C-145.53815296 15.33575704 -151.09825324 14.56917384 -156.21435547 17.91699219 Z M-171.21435547 24.91699219 C-177.50250989 31.62435691 -178.71455856 38.79158556 -178.58935547 47.60449219 C-178.60095703 48.43271484 -178.61255859 49.2609375 -178.62451172 50.11425781 C-178.60233359 54.731004 -178.52155962 58.37149604 -175.21435547 61.91699219 C-172.58741125 62.33480098 -172.58741125 62.33480098 -170.21435547 61.91699219 C-170.43091797 61.15515625 -170.64748047 60.39332031 -170.87060547 59.60839844 C-174.2531232 47.06489519 -172.79147822 37.41910552 -170.21435547 24.91699219 C-170.54435547 24.91699219 -170.87435547 24.91699219 -171.21435547 24.91699219 Z M-185.21435547 31.91699219 C-187.84837703 39.14487278 -190.45270786 47.82281088 -187.19482422 55.23730469 C-186.87126953 55.79160156 -186.54771484 56.34589844 -186.21435547 56.91699219 C-184.35940179 53.20708483 -185.18301505 48.49413854 -185.25341797 44.38964844 C-185.29828653 40.10470067 -185.07513465 36.14019005 -184.21435547 31.91699219 C-184.54435547 31.91699219 -184.87435547 31.91699219 -185.21435547 31.91699219 Z M-73.99560547 45.40136719 C-80.09301213 47.52198734 -86.27029647 47.29501289 -92.64355469 47.19824219 C-94.71030913 47.16705325 -96.7762948 47.15725179 -98.84326172 47.15136719 C-105.69650941 47.11060346 -112.42056053 46.84888441 -119.21435547 45.91699219 C-124.38107346 56.82231681 -128.28297791 65.7856663 -124.24951172 77.78808594 C-123.88728516 78.7175 -123.52505859 79.64691406 -123.15185547 80.60449219 C-120.75321521 86.78999673 -119.9907006 91.60134815 -122.65185547 97.91699219 C-125.9987745 103.98925958 -131.76035198 108.07648957 -137.21435547 112.16699219 C-139.27296426 113.77984652 -139.27296426 113.77984652 -140.33935547 115.85449219 C-140.39681497 118.22638399 -140.39681497 118.22638399 -138.02685547 120.60449219 C-133.39353699 124.41410961 -129.1065486 124.36686168 -123.21435547 123.91699219 C-118.19492044 122.8727992 -118.19492044 122.8727992 -114.21435547 119.91699219 C-114.21435547 118.92699219 -114.21435547 117.93699219 -114.21435547 116.91699219 C-113.22435547 116.91699219 -112.23435547 116.91699219 -111.21435547 116.91699219 C-110.8099141 121.04229413 -110.75602985 123.22950375 -113.08935547 126.72949219 C-117.26191995 129.65028732 -121.22924913 130.26844437 -126.21435547 130.91699219 C-126.54435547 132.56699219 -126.87435547 134.21699219 -127.21435547 135.91699219 C-121.00987241 136.36822732 -115.54162495 135.50601702 -109.52685547 134.10449219 C-108.80248291 133.93916992 -108.07811035 133.77384766 -107.33178711 133.60351562 C-102.95757699 132.53817653 -99.18860594 131.10126528 -95.21435547 128.91699219 C-95.54435547 127.26699219 -95.87435547 125.61699219 -96.21435547 123.91699219 C-89.46435547 125.54199219 -89.46435547 125.54199219 -87.21435547 128.91699219 C-86.55435547 128.91699219 -85.89435547 128.91699219 -85.21435547 128.91699219 C-85.52421403 137.43810248 -89.07893639 142.71031358 -94.96435547 148.72949219 C-103.64060644 154.56927649 -111.87219911 155.61894734 -122.21435547 155.91699219 C-122.21435547 157.56699219 -122.21435547 159.21699219 -122.21435547 160.91699219 C-119.32807146 162.49253254 -116.68093163 163.37975592 -113.46435547 164.04199219 C-112.06185547 164.33074219 -110.65935547 164.61949219 -109.21435547 164.91699219 C-112.84435547 165.90699219 -116.47435547 166.89699219 -120.21435547 167.91699219 C-120.21435547 170.55699219 -120.21435547 173.19699219 -120.21435547 175.91699219 C-119.55435547 175.91699219 -118.89435547 175.91699219 -118.21435547 175.91699219 C-117.88435547 176.90699219 -117.55435547 177.89699219 -117.21435547 178.91699219 C-116.55435547 178.91699219 -115.89435547 178.91699219 -115.21435547 178.91699219 C-115.21435547 179.57699219 -115.21435547 180.23699219 -115.21435547 180.91699219 C-92.56528182 186.0005518 -69.60855399 180.38700651 -49.21435547 169.91699219 C-51.31285068 173.84056305 -53.53156599 176.30374697 -57.02685547 179.04199219 C-57.85830078 179.70457031 -58.68974609 180.36714844 -59.54638672 181.04980469 C-62.21435547 182.91699219 -62.21435547 182.91699219 -68.21435547 185.91699219 C-66.23435547 189.87699219 -64.25435547 193.83699219 -62.21435547 197.91699219 C-48.24211903 195.1225449 -35.58775935 187.70981003 -23.21435547 180.91699219 C-22.20912842 180.37075195 -22.20912842 180.37075195 -21.18359375 179.81347656 C-11.1242401 174.33078034 -0.97816549 168.48395497 6.78564453 159.91699219 C6.27904297 158.99080078 6.27904297 158.99080078 5.76220703 158.04589844 C2.75872174 152.34274861 0.91158876 147.26322329 -0.21435547 140.91699219 C-3.13968374 141.03737607 -6.04485716 141.21101531 -8.96435547 141.41699219 C-9.78935547 141.44535156 -10.61435547 141.47371094 -11.46435547 141.50292969 C-13.94454475 141.70294495 -15.91232967 141.96232937 -18.21435547 142.91699219 C-19.69849506 144.83628357 -20.51535015 146.65464867 -21.40332031 148.90771484 C-22.49054113 151.60122097 -24.09535116 153.33056616 -26.15185547 155.35449219 C-27.12445313 156.34255859 -27.12445313 156.34255859 -28.11669922 157.35058594 C-30.50106586 159.13109063 -32.28846351 159.55570814 -35.21435547 159.91699219 C-34.18375 158.48806641 -34.18375 158.48806641 -33.13232422 157.03027344 C-32.22206619 155.76341948 -31.31191562 154.4964883 -30.40185547 153.22949219 C-29.72413086 152.29073242 -29.72413086 152.29073242 -29.03271484 151.33300781 C-23.5599473 144.35512692 -23.5599473 144.35512692 -22.21435547 135.91699219 C-21.24755859 135.975 -20.28076172 136.03300781 -19.28466797 136.09277344 C-9.51983282 136.43115881 -2.47040421 135.64286558 5.03173828 128.89746094 C12.45802503 121.11689262 15.3712826 113.65534679 15.88330078 102.94042969 C15.70443038 97.402602 14.01200724 94.4085144 10.47314453 90.10449219 C6.96951279 87.25269891 4.35276688 85.85281413 -0.24560547 85.96777344 C-7.28094631 86.995825 -12.36959641 90.87714216 -17.21435547 95.91699219 C-18.39114982 97.78111775 -19.51698935 99.67839771 -20.58935547 101.60449219 C-23.80154553 107.05157863 -27.16207214 109.00245985 -32.95654297 111.30761719 C-37.21310323 112.10380832 -40.96856758 111.59565614 -45.21435547 110.91699219 C-45.27042969 109.03367188 -45.27042969 109.03367188 -45.32763672 107.11230469 C-45.80537917 93.93687847 -46.65316253 84.35094608 -55.21435547 73.91699219 C-63.04270748 63.68675945 -66.79363436 56.98294931 -66.21435547 43.91699219 C-69.82719644 43.91699219 -70.90846165 44.08772158 -73.99560547 45.40136719 Z M-186.21435547 56.91699219 C-185.21435547 58.91699219 -185.21435547 58.91699219 -185.21435547 58.91699219 Z M-233.21435547 77.91699219 C-233.21435547 78.24699219 -233.21435547 78.57699219 -233.21435547 78.91699219 C-227.93435547 78.91699219 -222.65435547 78.91699219 -217.21435547 78.91699219 C-217.21435547 78.58699219 -217.21435547 78.25699219 -217.21435547 77.91699219 C-222.49435547 77.91699219 -227.77435547 77.91699219 -233.21435547 77.91699219 Z M-202.21435547 79.91699219 C-202.21435547 80.24699219 -202.21435547 80.57699219 -202.21435547 80.91699219 C-200.56435547 80.91699219 -198.91435547 80.91699219 -197.21435547 80.91699219 C-197.21435547 80.58699219 -197.21435547 80.25699219 -197.21435547 79.91699219 C-198.86435547 79.91699219 -200.51435547 79.91699219 -202.21435547 79.91699219 Z M-196.21435547 79.91699219 C-196.21435547 80.24699219 -196.21435547 80.57699219 -196.21435547 80.91699219 C-192.91435547 80.91699219 -189.61435547 80.91699219 -186.21435547 80.91699219 C-186.21435547 80.58699219 -186.21435547 80.25699219 -186.21435547 79.91699219 C-189.51435547 79.91699219 -192.81435547 79.91699219 -196.21435547 79.91699219 Z M-140.21435547 136.91699219 C-139.56466797 138.03589844 -138.91498047 139.15480469 -138.24560547 140.30761719 C-135.28458529 146.9959779 -135.7039784 154.01461332 -135.71414185 161.18334961 C-135.71527711 174.38222961 -135.15972174 187.34868111 -133.27685547 200.41699219 C-133.10669922 201.60131836 -132.93654297 202.78564453 -132.76123047 204.00585938 C-131.9615269 209.1901972 -130.96429469 213.95814588 -129.21435547 218.91699219 C-127.56435547 219.24699219 -125.91435547 219.57699219 -124.21435547 219.91699219 C-121.70100126 211.34306755 -119.84969823 202.6946452 -118.21435547 193.91699219 C-117.82183594 192.30824219 -117.82183594 192.30824219 -117.42138672 190.66699219 C-116.9079782 187.90853159 -116.9079782 187.90853159 -118.57763672 186.12402344 C-119.22087891 185.66382813 -119.86412109 185.20363281 -120.52685547 184.72949219 C-123.54626537 182.50627557 -125.84298115 180.75634611 -126.62841797 176.86621094 C-126.69802734 176.11984375 -126.76763672 175.37347656 -126.83935547 174.60449219 C-126.91412109 173.81429687 -126.98888672 173.02410156 -127.06591797 172.20996094 C-127.24501121 169.44344164 -127.21435547 166.68832319 -127.21435547 163.91699219 C-127.54435547 163.58699219 -127.87435547 163.25699219 -128.21435547 162.91699219 C-128.31390651 160.98160283 -128.34404215 159.0424345 -128.33935547 157.10449219 C-128.34322266 155.51701172 -128.34322266 155.51701172 -128.34716797 153.89746094 C-128.23440278 151.36687736 -127.88667903 149.33518821 -127.21435547 146.91699219 C-127.21904753 144.81467978 -127.21904753 144.81467978 -128.21435547 142.91699219 C-129.85067439 141.8680698 -131.5192141 140.86792515 -133.21435547 139.91699219 C-133.87435547 138.92699219 -134.53435547 137.93699219 -135.21435547 136.91699219 C-137.79815724 136.66668242 -137.79815724 136.66668242 -140.21435547 136.91699219 Z M-96.21435547 136.91699219 C-97.34873047 137.3771875 -98.48310547 137.83738281 -99.65185547 138.31152344 C-104.11034704 139.98345777 -108.52392048 140.86068837 -113.21435547 141.60449219 C-113.98908203 141.73404297 -114.76380859 141.86359375 -115.56201172 141.99707031 C-117.44494348 142.31089227 -119.32949252 142.61498574 -121.21435547 142.91699219 C-120.55435547 144.89699219 -119.89435547 146.87699219 -119.21435547 148.91699219 C-110.50215002 148.59669052 -103.59247691 147.43821774 -97.21435547 141.16699219 C-96.55435547 140.42449219 -95.89435547 139.68199219 -95.21435547 138.91699219 C-95.54435547 138.25699219 -95.87435547 137.59699219 -96.21435547 136.91699219 Z M17.72314453 162.91699219 C16.62292969 163.47386719 16.62292969 163.47386719 15.50048828 164.04199219 C14.93458984 164.33074219 14.36869141 164.61949219 13.78564453 164.91699219 C13.78564453 165.57699219 13.78564453 166.23699219 13.78564453 166.91699219 C13.04056641 167.18382812 12.29548828 167.45066406 11.52783203 167.72558594 C8.84460384 168.89137596 7.12525546 170.098407 4.91064453 171.97949219 C-14.05773008 187.0426132 -40.62096444 201.61247426 -64.26904297 207.24902344 C-66.64174951 208.06374797 -68.28371934 209.33698729 -70.21435547 210.91699219 C-69.32232422 211.45195312 -68.43029297 211.98691406 -67.51123047 212.53808594 C-64.06507888 214.83720764 -61.88652412 217.60933684 -59.46435547 220.97949219 C-58.70638672 222.02234375 -57.94841797 223.06519531 -57.16748047 224.13964844 C-55.82519396 226.04837985 -54.50872061 227.97544447 -53.21435547 229.91699219 C-52.55435547 229.91699219 -51.89435547 229.91699219 -51.21435547 229.91699219 C-51.21435547 230.57699219 -51.21435547 231.23699219 -51.21435547 231.91699219 C-46.32605452 231.4709461 -43.41305456 229.01580552 -39.77685547 225.97949219 C-38.52745603 224.96932191 -37.27610154 223.9615656 -36.02294922 222.95605469 C-35.38856934 222.4459082 -34.75418945 221.93576172 -34.10058594 221.41015625 C-24.58573478 213.87807889 -14.39214475 207.4005388 -4.0625 201.06005859 C-0.49364768 198.85274465 3.02654088 196.56883554 6.55126953 194.29199219 C8.58612792 193.03977164 10.63052044 191.94512478 12.78564453 190.91699219 C12.78564453 190.25699219 12.78564453 189.59699219 12.78564453 188.91699219 C14.76564453 188.25699219 16.74564453 187.59699219 18.78564453 186.91699219 C18.78564453 186.25699219 18.78564453 185.59699219 18.78564453 184.91699219 C19.50751953 184.71074219 20.22939453 184.50449219 20.97314453 184.29199219 C24.71117513 182.46451056 26.27811371 180.21260413 28.78564453 176.91699219 C28.38732422 175.93859375 28.38732422 175.93859375 27.98095703 174.94042969 C26.10736456 170.30431401 24.29249447 165.68868365 22.78564453 160.91699219 C20.94133041 160.91699219 19.33549054 162.09802279 17.72314453 162.91699219 Z M-109.21435547 189.91699219 C-111.77358583 197.95013194 -114.31482128 205.98538519 -116.58935547 214.10449219 C-116.92708984 215.29429687 -117.26482422 216.48410156 -117.61279297 217.70996094 C-118.21912814 220.94243613 -118.3535855 222.84270636 -117.21435547 225.91699219 C-115.74083369 227.23488307 -115.74083369 227.23488307 -113.77685547 227.97949219 C-112.70757812 228.45322266 -112.70757812 228.45322266 -111.61669922 228.93652344 C-110.82392578 229.26007813 -110.03115234 229.58363281 -109.21435547 229.91699219 C-108.32876953 230.29210937 -107.44318359 230.66722656 -106.53076172 231.05371094 C-102.01566861 233.12022459 -102.01566861 233.12022459 -97.21435547 233.91699219 C-96.22435547 231.60699219 -95.23435547 229.29699219 -94.21435547 226.91699219 C-94.84083984 226.87960937 -95.46732422 226.84222656 -96.11279297 226.80371094 C-96.93005859 226.73796875 -97.74732422 226.67222656 -98.58935547 226.60449219 C-99.80751953 226.51748047 -99.80751953 226.51748047 -101.05029297 226.42871094 C-103.21435547 225.91699219 -103.21435547 225.91699219 -105.21435547 222.91699219 C-104.58698107 221.1394314 -103.9365906 219.3681057 -103.20263672 217.63183594 C-101.67715044 213.44127086 -100.76584357 209.08524329 -99.83691406 204.72875977 C-98.75723885 200.04237647 -96.93497472 196.83604706 -94.21435547 192.91699219 C-94.21435547 191.92699219 -94.21435547 190.93699219 -94.21435547 189.91699219 C-99.16435547 189.91699219 -104.11435547 189.91699219 -109.21435547 189.91699219 Z M-79.55419922 190.95605469 C-86.25094978 194.97733784 -86.25094978 194.97733784 -91.21435547 200.91699219 C-91.21435547 201.57699219 -91.21435547 202.23699219 -91.21435547 202.91699219 C-90.45123047 202.81386719 -89.68810547 202.71074219 -88.90185547 202.60449219 C-87.57154297 202.75917969 -87.57154297 202.75917969 -86.21435547 202.91699219 C-84.40185547 205.41699219 -84.40185547 205.41699219 -83.21435547 207.91699219 C-78.24225985 206.15270019 -73.77997486 203.52307559 -69.21435547 200.91699219 C-69.9727199 199.26537638 -70.74647623 197.6208208 -71.52685547 195.97949219 C-71.95611328 195.06296875 -72.38537109 194.14644531 -72.82763672 193.20214844 C-74.7421707 190.04721216 -76.1404409 189.44009523 -79.55419922 190.95605469 Z M-92.21435547 204.91699219 C-92.74888107 206.16119866 -93.26644158 207.41270154 -93.77685547 208.66699219 C-94.06689453 209.36308594 -94.35693359 210.05917969 -94.65576172 210.77636719 C-95.2926735 213.21712002 -95.01684378 214.55735769 -94.21435547 216.91699219 C-92.56435547 215.92699219 -90.91435547 214.93699219 -89.21435547 213.91699219 C-89.71233917 210.18211441 -90.08927303 208.10461584 -92.21435547 204.91699219 Z " fill="#F1F1F1" transform="translate(324.21435546875,72.0830078125)"/>
<path d="M0 0 C10.88410334 -0.89016184 10.88410334 -0.89016184 15.0703125 2.44921875 C15.74835938 3.51785156 16.42640625 4.58648437 17.125 5.6875 C17.82882813 6.74324219 18.53265625 7.79898437 19.2578125 8.88671875 C20.75270717 11.55808882 21.96520236 14.12496946 23 17 C23.66 17 24.32 17 25 17 C26.98 19.97 28.96 22.94 31 26 C31.33 17.42 31.66 8.84 32 0 C35.63 0 39.26 0 43 0 C43.02464296 6.67520882 43.04283267 13.3503914 43.05493164 20.02563477 C43.05997325 22.29842591 43.06680637 24.5712138 43.07543945 26.84399414 C43.08751261 30.10303551 43.09322987 33.36203417 43.09765625 36.62109375 C43.10281754 37.64400009 43.10797882 38.66690643 43.11329651 39.72080994 C43.11337204 40.66170975 43.11344757 41.60260956 43.11352539 42.57202148 C43.115746 43.40475082 43.11796661 44.23748016 43.12025452 45.09544373 C43 47 43 47 42 48 C38.78710775 48.88928268 36.20637788 48.93294303 33 48 C29.42320729 44.73596341 26.73069776 40.98249835 24 37 C23.29875 35.989375 22.5975 34.97875 21.875 33.9375 C21.25625 32.968125 20.6375 31.99875 20 31 C18.80006404 29.26810724 17.59379737 27.54059141 16.3828125 25.81640625 C15.75004395 24.9147876 15.11727539 24.01316895 14.46533203 23.08422852 C13.73999268 22.0525354 13.73999268 22.0525354 13 21 C12.97494385 21.78238037 12.9498877 22.56476074 12.92407227 23.37084961 C12.80850212 26.89324949 12.68560051 30.4153556 12.5625 33.9375 C12.52318359 35.16919922 12.48386719 36.40089844 12.44335938 37.66992188 C12.40146484 38.83974609 12.35957031 40.00957031 12.31640625 41.21484375 C12.26141968 42.84087524 12.26141968 42.84087524 12.20532227 44.49975586 C12 47 12 47 11 48 C9.00390625 48.203125 9.00390625 48.203125 6.5625 48.25 C5.75941406 48.27578125 4.95632812 48.3015625 4.12890625 48.328125 C3.42636719 48.21984375 2.72382813 48.1115625 2 48 C-0.10483746 44.84274381 -0.2472059 44.12625389 -0.22705078 40.52856445 C-0.22689972 39.62785721 -0.22674866 38.72714996 -0.22659302 37.79914856 C-0.21627045 36.83031235 -0.20594788 35.86147614 -0.1953125 34.86328125 C-0.1924826 33.86870407 -0.18965271 32.87412689 -0.18673706 31.84941101 C-0.17553489 28.6703187 -0.15043014 25.49150728 -0.125 22.3125 C-0.11497025 20.15820719 -0.10584439 18.00390997 -0.09765625 15.84960938 C-0.07559546 10.56631028 -0.04211756 5.28317521 0 0 Z " fill="#E8E8E8" transform="translate(177,357)"/>
<path d="M0 0 C3.45904004 2.00550726 5.68480113 4.16257475 8.203125 7.27734375 C8.203125 8.26734375 8.203125 9.25734375 8.203125 10.27734375 C8.863125 10.27734375 9.523125 10.27734375 10.203125 10.27734375 C12.53519533 18.58534432 12.53519533 24.96934318 10.203125 33.27734375 C9.543125 33.27734375 8.883125 33.27734375 8.203125 33.27734375 C8.11546875 33.86257813 8.0278125 34.4478125 7.9375 35.05078125 C7.00526604 37.87723529 5.70518155 38.98047594 3.453125 40.90234375 C2.77765625 41.49273437 2.1021875 42.083125 1.40625 42.69140625 C-5.5032577 47.66527172 -13.67698877 46.92074497 -21.796875 46.27734375 C-28.07788087 44.70943944 -32.29792368 40.59662177 -35.796875 35.27734375 C-39.15151153 29.30229302 -39.65890695 23.01077108 -38.796875 16.27734375 C-36.67355912 8.89140089 -32.80007859 3.94844945 -26.171875 0.02734375 C-17.73675372 -4.34642284 -8.58251118 -3.88981555 0 0 Z M-25.87109375 14.34375 C-27.87158763 18.52199672 -27.7083848 22.81676388 -26.796875 27.27734375 C-24.63170732 31.4303275 -21.95173831 33.69991209 -17.796875 35.77734375 C-13.31736836 36.52392819 -10.20922262 35.93424962 -6.109375 34.02734375 C-2.91922154 31.61317356 -1.5534726 28.79053896 0.203125 25.27734375 C0.26259568 19.33027606 -0.78253005 14.83416775 -4.796875 10.27734375 C-12.62431759 5.2811038 -20.08474006 6.78567889 -25.87109375 14.34375 Z " fill="#E7E7E7" transform="translate(394.796875,358.72265625)"/>
<path d="M0 0 C0.9075 0.00257813 1.815 0.00515625 2.75 0.0078125 C4.11125 0.00394531 4.11125 0.00394531 5.5 0 C7.75 0.1328125 7.75 0.1328125 8.75 1.1328125 C8.82330331 3.99750575 8.84217831 6.83174924 8.8125 9.6953125 C8.7815625 13.871875 8.7815625 13.871875 8.75 18.1328125 C14.69 18.1328125 20.63 18.1328125 26.75 18.1328125 C26.71042519 12.58308129 26.71042519 12.58308129 26.65991211 7.03344727 C26.65276909 5.06635276 26.69968107 3.09927629 26.75 1.1328125 C27.75 0.1328125 27.75 0.1328125 30.25390625 0.03515625 C31.76791016 0.05255859 31.76791016 0.05255859 33.3125 0.0703125 C34.32441406 0.07933594 35.33632812 0.08835937 36.37890625 0.09765625 C37.16136719 0.10925781 37.94382813 0.12085938 38.75 0.1328125 C38.77526945 6.8080159 38.79283268 13.48320707 38.80493164 20.15844727 C38.80997325 22.43123841 38.81680637 24.7040263 38.82543945 26.97680664 C38.83751261 30.23584801 38.84322987 33.49484667 38.84765625 36.75390625 C38.85281754 37.77681259 38.85797882 38.79971893 38.86329651 39.85362244 C38.86337204 40.79452225 38.86344757 41.73542206 38.86352539 42.70483398 C38.865746 43.53756332 38.86796661 44.37029266 38.87025452 45.22825623 C38.75 47.1328125 38.75 47.1328125 37.75 48.1328125 C36.08570949 48.23105187 34.41718069 48.26254881 32.75 48.2578125 C31.38875 48.26167969 31.38875 48.26167969 30 48.265625 C27.75 48.1328125 27.75 48.1328125 26.75 47.1328125 C26.66348389 45.71711127 26.64295096 44.2972175 26.65234375 42.87890625 C26.65556641 42.02490234 26.65878906 41.17089844 26.66210938 40.29101562 C26.67048828 39.39318359 26.67886719 38.49535156 26.6875 37.5703125 C26.69201172 36.66861328 26.69652344 35.76691406 26.70117188 34.83789062 C26.71299756 32.60283661 26.73093362 30.36781648 26.75 28.1328125 C20.81 28.1328125 14.87 28.1328125 8.75 28.1328125 C8.75 34.4028125 8.75 40.6728125 8.75 47.1328125 C6.3703388 48.3226431 4.83514265 48.26631216 2.1875 48.2578125 C0.97900391 48.26167969 0.97900391 48.26167969 -0.25390625 48.265625 C-2.25 48.1328125 -2.25 48.1328125 -3.25 47.1328125 C-3.34813987 45.69540897 -3.3779828 44.25324923 -3.37939453 42.8125 C-3.38254669 41.89484863 -3.38569885 40.97719727 -3.38894653 40.03173828 C-3.3869223 39.03384277 -3.38489807 38.03594727 -3.3828125 37.0078125 C-3.38376923 35.99058105 -3.38472595 34.97334961 -3.38571167 33.92529297 C-3.38639361 31.76985614 -3.38453835 29.61441728 -3.38037109 27.45898438 C-3.37502305 24.14708879 -3.38031563 20.83532883 -3.38671875 17.5234375 C-3.38605797 15.43489553 -3.38477681 13.34635365 -3.3828125 11.2578125 C-3.38483673 10.25991699 -3.38686096 9.26202148 -3.38894653 8.23388672 C-3.38579437 7.31623535 -3.38264221 6.39858398 -3.37939453 5.453125 C-3.37859894 4.64117676 -3.37780334 3.82922852 -3.37698364 2.99267578 C-3.18768779 0.22015796 -2.7727808 0.16367109 0 0 Z " fill="#EBEBEB" transform="translate(114.25,356.8671875)"/>
<path d="M0 0 C1.39120471 0.00015906 2.78241534 0.00585033 4.17358398 0.01586914 C4.90463852 0.01728409 5.63569305 0.01869904 6.38890076 0.02015686 C8.73253406 0.02577131 11.07607313 0.03832617 13.41967773 0.05102539 C15.00496282 0.05603853 16.59024939 0.06060176 18.17553711 0.06469727 C22.06945383 0.07574542 25.96329979 0.09301967 29.85717773 0.11352539 C29.88405924 1.75927105 29.90351897 3.40513952 29.91967773 5.05102539 C29.9312793 5.96754883 29.94288086 6.88407227 29.95483398 7.82836914 C29.85717773 10.11352539 29.85717773 10.11352539 28.85717773 11.11352539 C27.36845914 11.20021971 25.87573274 11.22056033 24.38452148 11.21118164 C23.48540039 11.20795898 22.5862793 11.20473633 21.65991211 11.20141602 C20.71438477 11.19303711 19.76885742 11.1846582 18.79467773 11.17602539 C17.8452832 11.17151367 16.89588867 11.16700195 15.91772461 11.16235352 C13.56414708 11.15052649 11.21069296 11.13404564 8.85717773 11.11352539 C8.85717773 13.42352539 8.85717773 15.73352539 8.85717773 18.11352539 C10.68055664 18.09612305 10.68055664 18.09612305 12.54077148 18.07836914 C14.12540537 18.06899261 15.71004091 18.05989226 17.29467773 18.05102539 C18.09711914 18.04264648 18.89956055 18.03426758 19.72631836 18.02563477 C21.77012994 18.01701109 23.81401675 18.06124389 25.85717773 18.11352539 C26.85717773 19.11352539 26.85717773 19.11352539 26.85717773 28.11352539 C20.91717773 28.11352539 14.97717773 28.11352539 8.85717773 28.11352539 C8.85717773 31.08352539 8.85717773 34.05352539 8.85717773 37.11352539 C15.78717773 37.11352539 22.71717773 37.11352539 29.85717773 37.11352539 C29.85717773 40.41352539 29.85717773 43.71352539 29.85717773 47.11352539 C28.85717773 48.11352539 28.85717773 48.11352539 25.80615234 48.22705078 C24.45726503 48.22689174 23.10837159 48.22120151 21.75952148 48.21118164 C20.69623375 48.20905922 20.69623375 48.20905922 19.61146545 48.20689392 C17.33916061 48.20127982 15.06695298 48.18872502 12.79467773 48.17602539 C11.25756978 48.1710122 9.72046028 48.16644898 8.18334961 48.16235352 C4.40792132 48.15130581 0.63256603 48.1340318 -3.14282227 48.11352539 C-3.95946172 45.24829578 -4.26906856 42.70372951 -4.2722168 39.72802734 C-4.27536896 38.87066483 -4.27852112 38.01330231 -4.2817688 37.12995911 C-4.27974457 36.21316879 -4.27772034 35.29637848 -4.27563477 34.35180664 C-4.27659149 33.40540817 -4.27754822 32.4590097 -4.27853394 31.4839325 C-4.27921352 29.48766005 -4.2773747 27.49138537 -4.27319336 25.49511719 C-4.26782417 22.42711483 -4.27315498 19.35925768 -4.27954102 16.29125977 C-4.27888054 14.3531084 -4.27760003 12.41495712 -4.27563477 10.47680664 C-4.277659 9.55394363 -4.27968323 8.63108063 -4.2817688 7.68025208 C-4.25378806 0.15365583 -4.25378806 0.15365583 0 0 Z " fill="#E3E3E3" transform="translate(230.142822265625,356.886474609375)"/>
<path d="M0 0 C1.07314453 -0.020625 2.14628906 -0.04125 3.25195312 -0.0625 C9.71281525 -0.0941515 14.59862928 0.41166007 20.4375 3.25 C25.34984407 8.28830161 25.79535459 12.74263542 25.71484375 19.5234375 C25.32057023 23.39953489 24.06839377 25.41140409 21.4375 28.25 C15.86288795 32.54709679 12.10732366 33.38771547 5.1875 33.3125 C4.10984375 33.30347656 3.0321875 33.29445313 1.921875 33.28515625 C1.10203125 33.27355469 0.2821875 33.26195312 -0.5625 33.25 C-0.55089844 34.24902344 -0.53929687 35.24804688 -0.52734375 36.27734375 C-0.51832031 37.56769531 -0.50929688 38.85804688 -0.5 40.1875 C-0.48839844 41.47527344 -0.47679687 42.76304687 -0.46484375 44.08984375 C-0.5625 47.25 -0.5625 47.25 -1.5625 48.25 C-3.22679051 48.34823937 -4.89531931 48.37973631 -6.5625 48.375 C-7.92375 48.37886719 -7.92375 48.37886719 -9.3125 48.3828125 C-11.5625 48.25 -11.5625 48.25 -12.5625 47.25 C-12.66063987 45.81259647 -12.6904828 44.37043673 -12.69189453 42.9296875 C-12.69504669 42.01203613 -12.69819885 41.09438477 -12.70144653 40.14892578 C-12.6994223 39.15103027 -12.69739807 38.15313477 -12.6953125 37.125 C-12.69626923 36.10776855 -12.69722595 35.09053711 -12.69821167 34.04248047 C-12.69889361 31.88704364 -12.69703835 29.73160478 -12.69287109 27.57617188 C-12.68752305 24.26427629 -12.69281563 20.95251633 -12.69921875 17.640625 C-12.69855797 15.55208303 -12.69727681 13.46354115 -12.6953125 11.375 C-12.69733673 10.37710449 -12.69936096 9.37920898 -12.70144653 8.35107422 C-12.69829437 7.43342285 -12.69514221 6.51577148 -12.69189453 5.5703125 C-12.69109894 4.75836426 -12.69030334 3.94641602 -12.68948364 3.10986328 C-12.34110082 -1.99271842 -3.80294962 0.01782285 0 0 Z M-0.5625 10.25 C-0.5625 14.54 -0.5625 18.83 -0.5625 23.25 C6.26822211 23.68758387 6.26822211 23.68758387 12.4375 21.25 C14.6983746 18.5667763 14.6983746 18.5667763 14.1875 16.25 C13.42397443 13.98354622 13.42397443 13.98354622 11.4375 11.25 C7.70893571 9.67253049 3.40550038 10.18386666 -0.5625 10.25 Z " fill="#EAEAEA" transform="translate(328.5625,356.75)"/>
<path d="M0 0 C-0.50712033 3.71888239 -1.11608215 6.73454239 -3 10 C-4.32 10 -5.64 10 -7 10 C-7 9.34 -7 8.68 -7 8 C-8.58226965 7.80372609 -10.16589271 7.61834462 -11.75 7.4375 C-13.07257813 7.28087891 -13.07257813 7.28087891 -14.421875 7.12109375 C-16.88432451 7.00543324 -18.66538064 7.26361305 -21 8 C-20.53674254 10.48706021 -20.53674254 10.48706021 -19 13 C-15.89277447 14.29069368 -12.92383734 15.12931504 -9.67382812 15.93945312 C-4.19239658 17.4846638 -2.09415971 19.41971481 1 24 C2.59409502 28.03122107 2.24808215 32.07283255 1.0625 36.1875 C-0.6318756 39.97185432 -2.72406285 42.17227763 -6.3671875 44.1484375 C-14.19949251 46.68173496 -22.60025763 46.15296562 -29.9375 42.5 C-31.30972335 41.69674731 -32.67222399 40.87477007 -34 40 C-33.31620454 36.04991941 -32.21156817 33.36542982 -30 30 C-28.948125 30.433125 -28.948125 30.433125 -27.875 30.875 C-26.92625 31.24625 -25.9775 31.6175 -25 32 C-24.05125 32.391875 -23.1025 32.78375 -22.125 33.1875 C-18.35000081 34.16899979 -15.77005333 33.94251333 -12 33 C-11.34 32.01 -10.68 31.02 -10 30 C-13.58444914 27.66747244 -16.9000856 26.30686308 -21 25.125 C-29.21548218 22.41682137 -29.21548218 22.41682137 -32 18 C-33.07071058 13.61587425 -33.35605693 9.60225618 -32.375 5.1875 C-29.95987232 1.34525142 -27.41275441 -1.31005017 -23.3125 -3.3125 C-14.55269661 -5.1305724 -8.02884485 -3.82651329 0 0 Z " fill="#E5E5E5" transform="translate(104,360)"/>
<path d="M0 0 C-0.50712033 3.71888239 -1.11608215 6.73454239 -3 10 C-5.67400252 9.54159957 -7.91270284 9.04135129 -10.375 7.875 C-13.8463357 6.7178881 -16.45576415 7.30505179 -20 8 C-20 9.65 -20 11.3 -20 13 C-19.20335937 13.17015625 -18.40671875 13.3403125 -17.5859375 13.515625 C-10.11212608 15.22496386 -4.77354771 16.7885237 0.375 22.75 C2.37482272 26.74964544 2.72599532 29.61778731 2 34 C0.41294091 38.20570659 -1.1503532 40.66688073 -5 43 C-5.56332031 43.34804688 -6.12664062 43.69609375 -6.70703125 44.0546875 C-12.31619491 46.36715361 -19.87093446 45.90333142 -25.625 44.2421875 C-28.40412857 42.94457967 -30.55234236 41.66199069 -32.2890625 39.09375 C-33 37 -33 37 -31.625 33.25 C-31.08875 32.1775 -30.5525 31.105 -30 30 C-26.84917543 30.47739766 -24.57987656 31.20609829 -21.6875 32.625 C-17.10518301 34.33366057 -14.73226742 33.91324459 -10 33 C-10.25675913 30.50494008 -10.25675913 30.50494008 -12 28 C-14.42396854 27.01428266 -16.85908574 26.39286787 -19.390625 25.734375 C-24.30869139 24.35024853 -27.9202441 22.53255677 -30.9375 18.25 C-32.65222508 13.00495857 -32.68241143 8.97141079 -30.875 3.75 C-23.24944757 -7.43414357 -10.54118382 -4.92948889 0 0 Z " fill="#E4E4E4" transform="translate(310,360)"/>
<path d="M0 0 C0.85980469 -0.02449219 1.71960938 -0.04898437 2.60546875 -0.07421875 C8.84448582 -0.10262095 12.74469948 1.21672615 18.125 4.375 C18.125 5.035 18.125 5.695 18.125 6.375 C16.27648437 6.43107422 16.27648437 6.43107422 14.390625 6.48828125 C-7.13794844 7.27934028 -21.53928869 13.78797911 -38.98583984 26.06054688 C-41.70545446 27.95281944 -44.46540297 29.7669276 -47.25 31.5625 C-48.10335937 32.11292969 -48.95671875 32.66335938 -49.8359375 33.23046875 C-51.875 34.375 -51.875 34.375 -53.875 34.375 C-53.875 35.035 -53.875 35.695 -53.875 36.375 C-55.58398438 37.62426758 -55.58398438 37.62426758 -57.96875 39.01953125 C-58.835 39.53193359 -59.70125 40.04433594 -60.59375 40.57226562 C-61.5115625 41.10529297 -62.429375 41.63832031 -63.375 42.1875 C-65.15665034 43.23499646 -66.93790513 44.283166 -68.71875 45.33203125 C-69.59273438 45.83984131 -70.46671875 46.34765137 -71.3671875 46.87084961 C-73.67152678 48.25295965 -75.87309672 49.73129659 -78.09375 51.2421875 C-81.7399557 53.54046077 -84.52103584 53.91426897 -88.875 53.6875 C-90.009375 53.64238281 -91.14375 53.59726562 -92.3125 53.55078125 C-93.5809375 53.46376953 -93.5809375 53.46376953 -94.875 53.375 C-93.56813307 49.45439922 -91.23871862 48.42375228 -87.875 46.375 C-86.60117965 45.57873714 -85.32776024 44.7818326 -84.0546875 43.984375 C-83.37760742 43.56349609 -82.70052734 43.14261719 -82.00292969 42.70898438 C-78.30675231 40.39187639 -74.65636776 38.00423221 -71 35.625 C-66.21395549 32.51496733 -61.40956213 29.44893383 -56.53466797 26.47949219 C-53.95218709 24.76087737 -52.60646869 22.97220303 -50.875 20.375 C-50.16214844 20.24351562 -49.44929688 20.11203125 -48.71484375 19.9765625 C-44.69413223 19.12485745 -41.83379093 16.99721934 -38.4375 14.75 C-26.34756853 6.97131518 -14.70151004 0.02184474 0 0 Z " fill="#DADADA" transform="translate(331.875,288.625)"/>
<path d="M0 0 C1.56047445 0.00015913 3.12095416 0.00585397 4.68139648 0.01586914 C5.91115456 0.01799156 5.91115456 0.01799156 7.16575623 0.02015686 C9.79470406 0.0257725 12.42356797 0.0383276 15.05249023 0.05102539 C16.8304838 0.05603838 18.60847869 0.06060163 20.38647461 0.06469727 C24.75434569 0.07574701 29.12215371 0.09302208 33.48999023 0.11352539 C34.65999994 4.0308912 34.1858304 7.09311554 33.48999023 11.11352539 C29.19999023 11.11352539 24.90999023 11.11352539 20.48999023 11.11352539 C20.49784546 12.74149048 20.49784546 12.74149048 20.50585938 14.40234375 C20.5239086 18.41470521 20.53542195 22.42706306 20.54492188 26.43945312 C20.54996228 28.17871707 20.55679454 29.91797675 20.56542969 31.65722656 C20.57750815 34.15178476 20.58322132 36.64628712 20.58764648 39.14086914 C20.59280777 39.92316391 20.59796906 40.70545868 20.60328674 41.51145935 C20.60348249 43.37919653 20.55198718 45.24681743 20.48999023 47.11352539 C19.48999023 48.11352539 19.48999023 48.11352539 17.23999023 48.24633789 C16.33249023 48.24375977 15.42499023 48.24118164 14.48999023 48.23852539 C13.12874023 48.24239258 13.12874023 48.24239258 11.73999023 48.24633789 C9.48999023 48.11352539 9.48999023 48.11352539 8.48999023 47.11352539 C8.40143863 44.44726509 8.3747435 41.80705425 8.39233398 39.14086914 C8.39374893 38.34322647 8.39516388 37.5455838 8.3966217 36.72377014 C8.40223707 34.16615104 8.41479212 31.60861821 8.42749023 29.05102539 C8.43250326 27.32120894 8.43706651 25.59139113 8.44116211 23.86157227 C8.45221149 19.61218986 8.46948637 15.36287227 8.48999023 11.11352539 C4.52999023 11.11352539 0.56999023 11.11352539 -3.51000977 11.11352539 C-4.38891602 3.39868164 -4.38891602 3.39868164 -4.51000977 1.11352539 C-3.51000977 0.11352539 -3.51000977 0.11352539 0 0 Z " fill="#DDDDDD" transform="translate(410.510009765625,356.886474609375)"/>
<path d="M0 0 C3.96 0 7.92 0 12 0 C12.02464296 6.67520882 12.04283267 13.3503914 12.05493164 20.02563477 C12.05997325 22.29842591 12.06680637 24.5712138 12.07543945 26.84399414 C12.08751261 30.10303551 12.09322987 33.36203417 12.09765625 36.62109375 C12.10281754 37.64400009 12.10797882 38.66690643 12.11329651 39.72080994 C12.11337204 40.66170975 12.11344757 41.60260956 12.11352539 42.57202148 C12.115746 43.40475082 12.11796661 44.23748016 12.12025452 45.09544373 C12 47 12 47 11 48 C7.37 48 3.74 48 0 48 C0 32.16 0 16.32 0 0 Z " fill="#F6F6F6" transform="translate(160,357)"/>
<path d="M0 0 C17.68421053 0 17.68421053 0 22.75 4.375 C25.74541778 7.86965408 26.84511504 9.65766369 27.375 14.25 C26.76198381 20.38016195 24.81459137 24.35037149 20.25 28.5 C14.34812773 31.47047876 6.28255397 30.20768773 0 30 C0 20.1 0 10.2 0 0 Z M6 5 C6 11.6 6 18.2 6 25 C13.10883384 25.09113253 13.10883384 25.09113253 18.625 21.3125 C20.53914682 16.70114629 20.77142343 13.88570171 18.875 9.25 C16.46366762 6.35640114 14.6480482 5.8025706 11 5 C9.35 5 7.7 5 6 5 Z " fill="#CFCFCF" transform="translate(261,420)"/>
<path d="M0 0 C2.75329021 1.79562405 4.52627461 3.05254922 6 6 C6.13415472 8.6723621 6.04318541 11.32250488 6 14 C4.68 14.33 3.36 14.66 2 15 C0.68 13.02 -0.64 11.04 -2 9 C-4.86724686 9.57344937 -5.8614515 9.8614515 -8 12 C-7.175 12.763125 -6.35 13.52625 -5.5 14.3125 C-2.35284923 18.08908093 -2.27572302 21.64488672 -2.5234375 26.4296875 C-3 29 -3 29 -5 32.1875 C-9.02548968 34.61956668 -11.36082895 34.39315009 -16 34 C-16 33.34 -16 32.68 -16 32 C-14.35 31.34 -12.7 30.68 -11 30 C-10.94600264 28.54207116 -10.90720823 27.08357288 -10.875 25.625 C-10.85179687 24.81289062 -10.82859375 24.00078125 -10.8046875 23.1640625 C-10.78629949 20.78657757 -10.78629949 20.78657757 -13 19 C-13.37125 19.78375 -13.7425 20.5675 -14.125 21.375 C-16.43306306 24.60628829 -18.21616321 25.07506212 -22 26 C-22.61841026 18.88828207 -20.79213267 12.52417674 -16.31640625 6.875 C-11.2928468 1.68939024 -7.47237189 -0.78656546 0 0 Z " fill="#D9D9D9" transform="translate(328,164)"/>
<path d="M0 0 C4.20414428 3.18151459 6.41900187 5.87061746 7.1875 11.125 C7.50587905 16.17717274 7.06208322 20.25532613 4.07421875 24.515625 C0.34435517 28.4768697 -2.92703103 29.19812729 -8.3125 29.375 C-13.49013041 29.33810477 -15.99736057 28.41495077 -19.6875 24.75 C-22.51612642 21.00931103 -23.07650651 18.34262677 -23 13.6875 C-22.99613281 12.66527344 -22.99226563 11.64304687 -22.98828125 10.58984375 C-22.6937144 7.80867366 -22.11636736 6.12385534 -20.6875 3.75 C-20.0275 3.75 -19.3675 3.75 -18.6875 3.75 C-18.6875 3.09 -18.6875 2.43 -18.6875 1.75 C-11.92708116 -1.82183127 -7.31981157 -3.40456352 0 0 Z M-14.6875 6.75 C-17.01817577 9.96855225 -17.15491137 12.85490526 -16.6875 16.75 C-14.4116177 20.97481746 -14.4116177 20.97481746 -10.6875 23.75 C-7.5407681 24.02362886 -5.34277573 24.04123366 -2.4375 22.75 C0.19564132 19.74069564 1.08679034 16.72540232 1.3125 12.75 C0.5911759 9.2189468 -0.66012038 6.5122494 -3.625 4.3125 C-8.3091966 3.03499184 -10.93421835 3.98442405 -14.6875 6.75 Z " fill="#CECECE" transform="translate(335.6875,421.25)"/>
<path d="M0 0 C0 0.66 0 1.32 0 2 C0.66 2 1.32 2 2 2 C2 2.66 2 3.32 2 4 C2.66 4 3.32 4 4 4 C5.76462683 7.08809695 6 8.23312136 6 12 C2.70292385 12.16083298 0.22454712 12.07795939 -2.9140625 10.98828125 C-9.43237806 9.03891071 -16.56112643 9.96541673 -23.27929688 10.16601562 C-24.36919922 10.18470703 -25.45910156 10.20339844 -26.58203125 10.22265625 C-27.57436768 10.25109619 -28.5667041 10.27953613 -29.58911133 10.30883789 C-30.38470459 10.20692139 -31.18029785 10.10500488 -32 10 C-34.18038095 6.72942857 -34.63246755 5.79480531 -34 2 C-31.76607224 -1.5577368 -30.21048917 -2.62741211 -26.1953125 -3.86328125 C-16.81381238 -5.69683583 -8.44706097 -4.53159977 0 0 Z " fill="#E1E1E1" transform="translate(239,143)"/>
<path d="M0 0 C1.98 0 3.96 0 6 0 C6.01981934 0.62044189 6.03963867 1.24088379 6.06005859 1.88012695 C6.15531845 4.69134537 6.26499302 7.50182166 6.375 10.3125 C6.4059375 11.28896484 6.436875 12.26542969 6.46875 13.27148438 C6.50742188 14.20927734 6.54609375 15.14707031 6.5859375 16.11328125 C6.6173584 16.97735596 6.6487793 17.84143066 6.68115234 18.73168945 C6.87188037 21.27742445 6.87188037 21.27742445 9 24 C12.07921132 24.25660094 14.21136993 24.39431504 17 23 C17.9300889 20.2097333 18.18698769 18.23470458 18.31640625 15.33203125 C18.35830078 14.43935547 18.40019531 13.54667969 18.44335938 12.62695312 C18.48267578 11.69818359 18.52199219 10.76941406 18.5625 9.8125 C18.60568359 8.87212891 18.64886719 7.93175781 18.69335938 6.96289062 C18.79938665 4.64207146 18.90145029 2.32114675 19 0 C20.65 0 22.3 0 24 0 C24.08714316 3.91652632 24.14043985 7.83280311 24.1875 11.75 C24.21263672 12.86117188 24.23777344 13.97234375 24.26367188 15.1171875 C24.27333984 16.18710937 24.28300781 17.25703125 24.29296875 18.359375 C24.3086792 19.34389648 24.32438965 20.32841797 24.34057617 21.34277344 C23.94609552 24.42057091 23.15156103 25.79384078 21 28 C20.34 28 19.68 28 19 28 C19 28.66 19 29.32 19 30 C16.89611431 30.05402274 14.79183286 30.09280256 12.6875 30.125 C11.51574219 30.14820313 10.34398437 30.17140625 9.13671875 30.1953125 C6 30 6 30 3 28 C3 27.34 3 26.68 3 26 C2.34 26 1.68 26 1 26 C-0.42810652 21.71568043 -0.40998593 17.48999977 -0.625 13 C-0.6765625 12.08476562 -0.728125 11.16953125 -0.78125 10.2265625 C-0.82507813 9.34742188 -0.86890625 8.46828125 -0.9140625 7.5625 C-0.9548291 6.75941406 -0.9955957 5.95632813 -1.03759766 5.12890625 C-1 3 -1 3 0 0 Z " fill="#DEDEDE" transform="translate(226,420)"/>
<path d="M0 0 C0.7734375 0.4640625 0.7734375 0.4640625 1.5625 0.9375 C0.9025 2.5875 0.2425 4.2375 -0.4375 5.9375 C-4.0675 5.6075 -7.6975 5.2775 -11.4375 4.9375 C-9.29695533 9.21858934 -9.12214858 9.42130742 -5 10.9375 C-2.3910288 12.02982288 -0.50628764 12.88085136 1.6875 14.6875 C3.03264729 18.14645018 2.80810752 21.45252159 1.5625 24.9375 C-0.60456293 27.7984253 -1.74114428 28.81734079 -5.3125 29.43359375 C-6.34375 29.41425781 -7.375 29.39492188 -8.4375 29.375 C-9.984375 29.37306641 -9.984375 29.37306641 -11.5625 29.37109375 C-14.70932056 28.89650532 -16.10768047 28.04889895 -18.4375 25.9375 C-17.7775 24.2875 -17.1175 22.6375 -16.4375 20.9375 C-15.756875 21.2675 -15.07625 21.5975 -14.375 21.9375 C-10.92909762 23.11057315 -8.05352578 23.07930493 -4.4375 22.9375 C-4.4375 21.2875 -4.4375 19.6375 -4.4375 17.9375 C-5.30375 17.855 -6.17 17.7725 -7.0625 17.6875 C-11.15997651 16.77694966 -13.35017922 15.80942631 -16.4375 12.9375 C-17.57614973 9.86084542 -17.89526783 7.18823106 -17.4375 3.9375 C-12.6231708 -2.4816056 -7.27170026 -3.1697155 0 0 Z " fill="#CBCBCB" transform="translate(185.4375,421.0625)"/>
<path d="M0 0 C0.9583374 0.00523682 1.9166748 0.01047363 2.90405273 0.01586914 C4.45576172 0.02070313 4.45576172 0.02070313 6.03881836 0.02563477 C7.12743164 0.03401367 8.21604492 0.04239258 9.33764648 0.05102539 C10.97636719 0.05779297 10.97636719 0.05779297 12.64819336 0.06469727 C15.35723144 0.07652713 18.06616248 0.09300996 20.77514648 0.11352539 C21.15733416 1.76967196 21.4890975 3.43809563 21.77514648 5.11352539 C21.44514648 5.44352539 21.11514648 5.77352539 20.77514648 6.11352539 C18.13514648 6.11352539 15.49514648 6.11352539 12.77514648 6.11352539 C12.77514648 14.03352539 12.77514648 21.95352539 12.77514648 30.11352539 C10.79514648 30.11352539 8.81514648 30.11352539 6.77514648 30.11352539 C6.77514648 22.19352539 6.77514648 14.27352539 6.77514648 6.11352539 C4.13514648 6.11352539 1.49514648 6.11352539 -1.22485352 6.11352539 C-1.88485352 4.46352539 -2.54485352 2.81352539 -3.22485352 1.11352539 C-2.22485352 0.11352539 -2.22485352 0.11352539 0 0 Z " fill="#DBDBDB" transform="translate(196.224853515625,419.886474609375)"/>
<path d="M0 0 C3.31592342 1.41806371 5.92656015 2.59843515 8.4921875 5.1640625 C8.6171875 7.7890625 8.6171875 7.7890625 8.4921875 10.1640625 C5.01033145 11.32468118 4.58322625 10.97904146 1.3671875 9.6015625 C-3.14907893 7.96128984 -5.94876446 8.37586832 -10.48828125 9.6796875 C-13.05744741 10.29588983 -15.0115584 9.96930576 -17.5078125 9.1640625 C-17.8828125 6.4140625 -17.8828125 6.4140625 -17.5078125 3.1640625 C-12.381252 -1.83104773 -6.55784799 -2.18594933 0 0 Z " fill="#D5D5D5" transform="translate(227.5078125,160.8359375)"/>
<path d="M0 0 C1.98 0 3.96 0 6 0 C6 9.9 6 19.8 6 30 C4.02 30 2.04 30 0 30 C-1.0031921 26.99042369 -1.12896682 24.96134604 -1.1328125 21.81640625 C-1.13410156 20.80642578 -1.13539063 19.79644531 -1.13671875 18.75585938 C-1.13285156 17.70205078 -1.12898438 16.64824219 -1.125 15.5625 C-1.12886719 14.51255859 -1.13273437 13.46261719 -1.13671875 12.38085938 C-1.13542969 11.36958984 -1.13414062 10.35832031 -1.1328125 9.31640625 C-1.13168457 8.39287354 -1.13055664 7.46934082 -1.12939453 6.51782227 C-1.01019248 4.19833034 -0.65474662 2.22074189 0 0 Z " fill="#E3E3E3" transform="translate(297,420)"/>
<path d="M0 0 C7.01123596 -0.77902622 7.01123596 -0.77902622 10.0625 1.625 C11.31856608 4.80703406 10.92070253 6.74212952 10 10 C8 12 8 12 4.5625 12.3125 C1 12 1 12 -0.9375 10.875 C-2.48724515 8.14015561 -2.32162076 6.0875593 -2 3 C-1.34 2.01 -0.68 1.02 0 0 Z " fill="#DEDEDE" transform="translate(241,300)"/>
<path d="M0 0 C2.97 0.33 5.94 0.66 9 1 C5.68987756 4.31012244 4.46840411 4.50351065 0 5 C0 3.35 0 1.7 0 0 Z " fill="#AFAFAF" transform="translate(207,235)"/>
<path d="M0 0 C1.65 0.33 3.3 0.66 5 1 C5.33 1.99 5.66 2.98 6 4 C2.535 5.485 2.535 5.485 -1 7 C-0.67 4.69 -0.34 2.38 0 0 Z " fill="#CDCDCD" transform="translate(118,121)"/>
<path d="M0 0 C-0.33 1.32 -0.66 2.64 -1 4 C-3.31 4 -5.62 4 -8 4 C-4.5 0 -4.5 0 0 0 Z " fill="#E4E4E4" transform="translate(245,337)"/>
<path d="M0 0 C0.33 0.66 0.66 1.32 1 2 C2.65 1.67 4.3 1.34 6 1 C6.33 1.66 6.66 2.32 7 3 C6.071875 3.185625 6.071875 3.185625 5.125 3.375 C2.80879168 3.87197356 2.80879168 3.87197356 1 6 C0.34 6 -0.32 6 -1 6 C-0.67 4.02 -0.34 2.04 0 0 Z " fill="#BABABA" transform="translate(232,273)"/>
<path d="M0 0 C-0.3125 1.875 -0.3125 1.875 -1 4 C-1.99 4.66 -2.98 5.32 -4 6 C-4.99 4.68 -5.98 3.36 -7 2 C-4.35261084 0.5393715 -3.10551666 0 0 0 Z " fill="#A1A1A1" transform="translate(275,242)"/>
<path d="M0 0 C0.66 0.33 1.32 0.66 2 1 C1.0409375 2.3921875 1.0409375 2.3921875 0.0625 3.8125 C-2.08622093 6.84219943 -2.08622093 6.84219943 -3 10 C-4 9 -4 9 -4.3125 6.6875 C-3.91080481 3.23292134 -2.60100327 2.19459651 0 0 Z " fill="#C1C1C1" transform="translate(82,199)"/>
<path d="M0 0 C-3.75 2 -3.75 2 -6 2 C-6.33 2.66 -6.66 3.32 -7 4 C-8.98 3.34 -10.96 2.68 -13 2 C-13 1.67 -13 1.34 -13 1 C-8.60563789 0.14256349 -4.47427924 -0.08948558 0 0 Z " fill="#A0A0A0" transform="translate(247,57)"/>
<path d="M0 0 C0.99 0 1.98 0 3 0 C3.33 2.31 3.66 4.62 4 7 C3.67 5.68 3.34 4.36 3 3 C1.35 3.66 -0.3 4.32 -2 5 C-1.34 3.35 -0.68 1.7 0 0 Z " fill="#AFAFAF" transform="translate(210,189)"/>
<path d="M0 0 C0.99 0.33 1.98 0.66 3 1 C-1.75 5.875 -1.75 5.875 -4 7 C-2.92598892 4.08482708 -2.22189824 2.22189824 0 0 Z " fill="#A3A3A3" transform="translate(354,71)"/>
<path d="M0 0 C-0.33 1.32 -0.66 2.64 -1 4 C-1.66 4 -2.32 4 -3 4 C-3 4.66 -3 5.32 -3 6 C-2.34 6.33 -1.68 6.66 -1 7 C-1.99 7 -2.98 7 -4 7 C-4 5.02 -4 3.04 -4 1 C-2 0 -2 0 0 0 Z " fill="#A2A2A2" transform="translate(185,71)"/>
<path d="M0 0 C0.66 0.33 1.32 0.66 2 1 C-0.31 3.31 -2.62 5.62 -5 8 C-5 5 -5 5 -2.5 2.3125 C-1.675 1.549375 -0.85 0.78625 0 0 Z " fill="#AEAEAE" transform="translate(366,360)"/>
<path d="M0 0 C0.99 0 1.98 0 3 0 C3 1.32 3 2.64 3 4 C1.02 4 -0.96 4 -3 4 C-2.34 3.67 -1.68 3.34 -1 3 C-0.67 2.01 -0.34 1.02 0 0 Z " fill="#A7A7A7" transform="translate(242,151)"/>
</svg>
